<svg xmlns="http://www.w3.org/2000/svg" viewBox="0 0 197.34 106.21"><defs><style>.cls-1{fill:#fff;}</style></defs><g id="Layer_2" data-name="Layer 2"><path class="cls-1" d="M207.33,417.68v4.61H404.67v-4.61Z" transform="translate(-207.33 -331.33)"/><path class="cls-1" d="M242,410.74a7,7,0,1,0-7-7A7,7,0,0,0,242,410.74Zm0-11.3a4.21,4.21,0,0,1,4.08,4.32,4.05,4.05,0,1,1-8.1-.07A4.22,4.22,0,0,1,241.94,399.44Z" transform="translate(-207.33 -331.33)"/><path class="cls-1" d="M351.87,402.86l9.45,7.83V397h-2.77v7.73l-9.5-7.92v13.6h2.82Z" transform="translate(-207.33 -331.33)"/><path class="cls-1" d="M395.94,410.35c.17-.76-.09-1.48.17-2.11h1.27l2.14,2.17h3.79c-1-1.05-1.83-2-2.7-2.91.18-.43.55-.49.8-.69a5.38,5.38,0,0,0,1.94-5.55,5,5,0,0,0-3.72-4c-2.09-.63-4.26-.22-6.35-.33v13.61C394.25,410.36,395.14,410.65,395.94,410.35Zm.13-10.8c1.49,0,3-.28,4,1.19a3.1,3.1,0,0,1,.09,3.45c-.92,1.5-2.48,1.4-4.06,1.39Z" transform="translate(-207.33 -331.33)"/><path class="cls-1" d="M260.78,410.72a6.82,6.82,0,0,0,6.24-6.16h-2.66c-1.06,2.53-2.46,3.55-4.59,3.37a4.12,4.12,0,0,1-3.51-3.2,4.4,4.4,0,0,1,1.9-4.67c2.38-1.35,4.21-.27,5.82,1.52l2.09-1.49a6.81,6.81,0,0,0-8.46-2.88,7.17,7.17,0,0,0-4.2,8.2A7.07,7.07,0,0,0,260.78,410.72Z" transform="translate(-207.33 -331.33)"/><path class="cls-1" d="M322,400c1.84-1.06,3.38-.66,5.77,1.53l2.12-1.48a7,7,0,0,0-8.77-2.74,7.09,7.09,0,0,0-3.95,8.07,7,7,0,0,0,7.2,5.34,6.92,6.92,0,0,0,6.44-6.13h-2.75c-1,2.49-2.39,3.49-4.53,3.33A4,4,0,0,1,320,404.6,4.31,4.31,0,0,1,322,400Z" transform="translate(-207.33 -331.33)"/><path class="cls-1" d="M279,410.72a6.81,6.81,0,0,0,6.2-6.15h-2.64c-1.44,3.12-3.74,4.19-6.08,2.88a4.32,4.32,0,0,1-1.33-6.24,3.84,3.84,0,0,1,2.79-1.72c1.8-.22,3.09.8,4.23,2.08l2.1-1.47a6.86,6.86,0,0,0-8.51-2.89,7.21,7.21,0,0,0-4.19,8.1A7.09,7.09,0,0,0,279,410.72Z" transform="translate(-207.33 -331.33)"/><path class="cls-1" d="M215.62,410.74a7,7,0,0,0,6.84-6.15h-2.75c-1.38,3.1-3.72,4.18-6.08,2.84a4.31,4.31,0,0,1-1.39-6.12,3.88,3.88,0,0,1,2.89-1.82c1.79-.21,3.07.82,4.22,2.09l2.09-1.5a6.83,6.83,0,0,0-8.39-2.89,7,7,0,0,0,2.57,13.55Z" transform="translate(-207.33 -331.33)"/><path class="cls-1" d="M291.73,410.42l.81-1.64h6.55l.84,1.63H303c-2.39-4.59-4.7-9.06-7.13-13.73l-7.12,13.74Zm4-8.32a31.31,31.31,0,0,1,2,3.91h-3.87Z" transform="translate(-207.33 -331.33)"/><path class="cls-1" d="M388.29,407.91h-5.45v-3.39h4.9v-2.6h-5a8.2,8.2,0,0,1,.13-2.37h4.21V397H380V410.4h8.32Z" transform="translate(-207.33 -331.33)"/><path class="cls-1" d="M335.8,410.38h8.42c-.16-.87.13-1.66-.23-2.5h-5.35V404.5h4.92v-2.56h-4.92v-2.41h4.17a6.59,6.59,0,0,0,.08-2.5H335.8Z" transform="translate(-207.33 -331.33)"/><path class="cls-1" d="M369.15,399.57v10.85H372V399.51h3.6a10.33,10.33,0,0,0-.13-2.54h-9.64a6.85,6.85,0,0,0,.14,2.6Z" transform="translate(-207.33 -331.33)"/><path class="cls-1" d="M230.06,396.94h-2.6v13.48h2.6Z" transform="translate(-207.33 -331.33)"/><path class="cls-1" d="M361.28,430.76v3.65l-4.75-4v6.86a2.91,2.91,0,0,0,1.51-.13v-3.56l4.69,3.87v-6.82A1.75,1.75,0,0,0,361.28,430.76Z" transform="translate(-207.33 -331.33)"/><path class="cls-1" d="M319.36,430.78v3.6l-4.72-3.93v6.79a1.91,1.91,0,0,0,1.48,0v-3.58l4.69,3.81v-6.88C320.3,430.64,319.88,430.45,319.36,430.78Z" transform="translate(-207.33 -331.33)"/><path class="cls-1" d="M217.65,430.51a3.5,3.5,0,0,0-3.57,3.39,3.57,3.57,0,0,0,3.55,3.6,3.51,3.51,0,0,0,3.48-3.5A3.44,3.44,0,0,0,217.65,430.51Zm-.07,5.54a2.06,2.06,0,0,1,0-4.12,2.06,2.06,0,0,1,0,4.12Z" transform="translate(-207.33 -331.33)"/><path class="cls-1" d="M253.48,430.51a3.38,3.38,0,0,0-3.55,3.37,3.5,3.5,0,0,0,3.34,3.63,3.59,3.59,0,0,0,3.66-3.49A3.49,3.49,0,0,0,253.48,430.51Zm-.1,5.54a2.05,2.05,0,0,1-2-2.09,2,2,0,0,1,2-2,2.06,2.06,0,0,1,0,4.12Z" transform="translate(-207.33 -331.33)"/><path class="cls-1" d="M283.36,430.51a3.51,3.51,0,0,0-3.56,3.41,3.6,3.6,0,0,0,3.57,3.59A3.47,3.47,0,0,0,286.8,434,3.37,3.37,0,0,0,283.36,430.51Zm0,5.54a2.06,2.06,0,0,1,0-4.12,2.06,2.06,0,0,1,0,4.12Z" transform="translate(-207.33 -331.33)"/><path class="cls-1" d="M292.7,430.78v3.6L288,430.49v6.77a1.86,1.86,0,0,0,1.44-.07v-3.61l4.69,3.83v-6.79A2,2,0,0,0,292.7,430.78Z" transform="translate(-207.33 -331.33)"/><path class="cls-1" d="M239.79,434.38l-4.7-3.86v6.81c.5,0,.92.15,1.38-.16v-3.61l4.71,3.86v-6.77h-1.39Z" transform="translate(-207.33 -331.33)"/><path class="cls-1" d="M247.38,430.71v3.71l-4.7-3.91v6.78a1.66,1.66,0,0,0,1.45-.19v-3.48l4.66,3.85v-6.8A2.14,2.14,0,0,0,247.38,430.71Z" transform="translate(-207.33 -331.33)"/><path class="cls-1" d="M350.09,432.37a3,3,0,0,0-3.07-1.8h-1.87v6.75h1.16c.4-.3-.11-.9.44-1.09.79,0,1,.83,1.52,1.06h1.82l-1.27-1.46Q350.73,434.2,350.09,432.37Zm-3.55,2.41V432c1.58-.08,2.16.27,2.2,1.29S348.15,434.84,346.54,434.78Z" transform="translate(-207.33 -331.33)"/><path class="cls-1" d="M227.29,432.53a2.49,2.49,0,0,0-2.23-1.9,19.15,19.15,0,0,0-2.73,0v6.72h1.16c.41-.28-.11-.89.47-1.11.79,0,1,1,1.46,1.09h1.85L226,435.81A2.81,2.81,0,0,0,227.29,432.53Zm-3.57,2.25V432c1.58-.08,2.16.27,2.2,1.29S225.33,434.84,223.72,434.78Z" transform="translate(-207.33 -331.33)"/><path class="cls-1" d="M381.43,432.41c-.48-1.27-1.48-1.84-3.29-1.83a3.65,3.65,0,0,0-1.67.12v6.61h1.22c.51-.14-.16-.93.51-1.08.68,0,.87.79,1.49,1.1a3.64,3.64,0,0,0,1.67-.12l-1.2-1.36C381.5,434.63,381.87,433.6,381.43,432.41Zm-3.46,2.4a16.8,16.8,0,0,1-.11-2.74c1.57-.15,2.19.23,2.22,1.27S379.49,434.8,378,434.81Z" transform="translate(-207.33 -331.33)"/><path class="cls-1" d="M330.48,430.67a6.35,6.35,0,0,0-3,.05c0,2.09,0,4.1,0,6.12a3,3,0,0,0,.07.44,1.92,1.92,0,0,0,1.28,0c.25-.35-.09-.8.4-1,.73,0,.93.87,1.65,1.15l1.63-.09-1.28-1.42a9.05,9.05,0,0,0,.7-.67A2.72,2.72,0,0,0,330.48,430.67ZM329,434.81v-2.72c1.48-.18,2.12.19,2.16,1.22S330.54,434.79,329,434.81Z" transform="translate(-207.33 -331.33)"/><path class="cls-1" d="M392.28,430.71c-.24.77.11,1.59-.21,2.33h-2.79c-.24-.83.1-1.64-.22-2.4a1.94,1.94,0,0,0-1.28.06v6.59a1.79,1.79,0,0,0,1.47-.17v-2.61h3v2.74a1.74,1.74,0,0,0,1.39,0v-6.6C393.09,430.59,392.68,430.46,392.28,430.71Z" transform="translate(-207.33 -331.33)"/><path class="cls-1" d="M400.52,430.62a8,8,0,0,0-2.72.05v6.69c.5-.05.92.1,1.25-.06s0-.63.38-.84c.36-.06.78-.11,1.19-.2a2.87,2.87,0,0,0-.1-5.64Zm.7,3.63a1.64,1.64,0,0,1-2,.73,13.83,13.83,0,0,1,0-3c.76-.14,1.42-.2,1.9.51A1.57,1.57,0,0,1,401.22,434.25Z" transform="translate(-207.33 -331.33)"/><path class="cls-1" d="M341.06,430.58c-.69,0-1.38,0-2.13,0v6.67a2.21,2.21,0,0,0,1.3.06c.06-.25.13-.51.23-.85.37,0,.65-.06.92-.11a2.87,2.87,0,0,0,2.65-3.18A2.82,2.82,0,0,0,341.06,430.58Zm-.69,4.43a14,14,0,0,1,0-3c1.52-.12,2.07.23,2.13,1.32S342.06,435,340.37,435Z" transform="translate(-207.33 -331.33)"/><path class="cls-1" d="M373.78,430.74a.49.49,0,0,0-.06.17c0,1,0,2.08,0,3.11,0,1.87-.5,2.23-2.46,1.77-.93-1.57-.11-3.44-.54-5.13a2.18,2.18,0,0,0-1.29,0c0,1.48-.08,2.93,0,4.37a2.65,2.65,0,0,0,2.76,2.47,2.6,2.6,0,0,0,2.89-2.47c.11-1.44,0-2.89,0-4.46C374.61,430.64,374.17,430.41,373.78,430.74Z" transform="translate(-207.33 -331.33)"/><path class="cls-1" d="M352.7,436c.07-.54-.11-1,.13-1.44.78-.22,1.59.11,2.35-.2.05-.42.22-.83-.15-1.25h-2.32c.07-.4-.17-.75.24-1.17h1.82a1.46,1.46,0,0,0,.06-1.27h-3.46v6.64h4.16c-.06-.42.1-.79-.24-1.31Z" transform="translate(-207.33 -331.33)"/><path class="cls-1" d="M365.61,435.89a1.68,1.68,0,0,1,.13-1.44h2.14a1.48,1.48,0,0,0,.06-1.26c-.81-.23-1.64.13-2.38-.23,0-.35-.16-.68.14-.93.63-.22,1.31.09,2-.24,0-.38.14-.79-.15-1.23a20.92,20.92,0,0,0-3.38.13v6.62h4a1.85,1.85,0,0,0,0-1.19C367.3,435.86,366.44,436.2,365.61,435.89Z" transform="translate(-207.33 -331.33)"/><path class="cls-1" d="M335.27,436.06a2.23,2.23,0,0,1,0-1.53c.77-.2,1.6.14,2.34-.21a1.64,1.64,0,0,0-.08-1.22h-2.3c-.07-.47-.22-.83.21-1.2h1.78a1.77,1.77,0,0,0,0-1.3,21.21,21.21,0,0,0-3.48.06v6.61H338c-.12-.44.1-.84-.3-1.21Z" transform="translate(-207.33 -331.33)"/><path class="cls-1" d="M310.93,436a2.16,2.16,0,0,1,0-1.46c.78-.26,1.61.12,2.39-.26a1.83,1.83,0,0,0-.13-1.19H310.9c-.1-.48-.22-.83.17-1.21h1.72a1.28,1.28,0,0,0,.07-1.28h-3.43v6.66h4.14c0-.45.14-.83-.26-1.26Z" transform="translate(-207.33 -331.33)"/><path class="cls-1" d="M302.78,434.37c-.33.43,0,1-.48,1.5s-1.11.29-1.62-.3c-.42-1.69.84-1.56,1.8-1.68-.11-.72-.69-1.19-.72-1.86.37-.38,1,0,1.31-.42a1.22,1.22,0,0,0-.08-1h-3.4c.07.78.74,1.34.88,2.09-1.29,1.12-1.67,2.34-1.08,3.45a2.55,2.55,0,0,0,3,1.2,1.85,1.85,0,1,0,.38-3Z" transform="translate(-207.33 -331.33)"/><path class="cls-1" d="M264.29,437.31h1.39c.34-.16.28-.69.67-.78h3c.21.25.25.7.7.84l1.32-.06-3.58-6.88Zm2.6-2.27c.25-.53.43-.91.62-1.28a1.89,1.89,0,0,1,.24-.37c.54.42.56,1.07,1,1.59A3.46,3.46,0,0,1,266.89,435Z" transform="translate(-207.33 -331.33)"/><path class="cls-1" d="M384.52,433c-.54-.09-1-.36-.51-1.08.72.06,1.52.34,2-.67a2.09,2.09,0,0,0-2.55-.57,1.78,1.78,0,0,0-1.14,1.92c.11,1.08.81,1.51,1.75,1.74.59.15,1.23.32,1.11,1.18-.55.83-1.21.44-1.91.14-.29.3-.82.39-.93.94a2.58,2.58,0,0,0,3.13.58,2.08,2.08,0,0,0,1.2-2.2C386.57,433.69,385.7,433.21,384.52,433Z" transform="translate(-207.33 -331.33)"/><path class="cls-1" d="M262.87,430.66c-.77,1.15-1.08,2.54-2,3.67-.7-1.33-1.36-2.55-2-3.7h-1.66l3.62,6.91,3.41-6.83A2.06,2.06,0,0,0,262.87,430.66Z" transform="translate(-207.33 -331.33)"/><path class="cls-1" d="M213.23,433.08H211a1.1,1.1,0,0,1,.07-1.1l1.9-.08a1.78,1.78,0,0,0,.08-1.31,19.41,19.41,0,0,0-3.52.09v6.69c.48-.1.92.15,1.42-.25v-2.56c.86-.23,1.68.09,2.48-.24C213.4,433.92,213.64,433.49,213.23,433.08Z" transform="translate(-207.33 -331.33)"/><path class="cls-1" d="M321.74,430.67c0,.46-.14.84.11,1.16.45.32,1-.11,1.56.44v5h1.5v-5.22c.64-.27,1.19,0,1.66-.31.07-.39.22-.79-.06-1.11Z" transform="translate(-207.33 -331.33)"/><path class="cls-1" d="M271.71,430.64a1.29,1.29,0,0,0,.12,1.28l1.44.07v5.25a2,2,0,0,0,1.55-.06V432l1.66-.08a2.48,2.48,0,0,0,0-1.27Z" transform="translate(-207.33 -331.33)"/><path class="cls-1" d="M232.31,430.69v6.71c.54-.14,1,.15,1.38-.18v-6.64A3.18,3.18,0,0,0,232.31,430.69Z" transform="translate(-207.33 -331.33)"/><path class="cls-1" d="M395,430.64v6.63a1.93,1.93,0,0,0,1.42,0v-6.53A2.44,2.44,0,0,0,395,430.64Z" transform="translate(-207.33 -331.33)"/><path class="cls-1" d="M277.43,437.3c.52,0,1,.21,1.34-.12v-6.54h-1.34Z" transform="translate(-207.33 -331.33)"/><path class="cls-1" d="M308.63,389.27c17.36.58,30.43-13.81,30-28.88.54-15.2-12.47-29.05-28.8-29.06a29,29,0,0,0-1.18,57.94Zm10.29-22.17a5.26,5.26,0,0,0-.92,3.17c0,.69-.26,1.07-1,.83a3.55,3.55,0,0,1,1.95-4.76C319.2,366.6,319.07,366.87,318.92,367.1Zm9.61-9.17A4.23,4.23,0,0,1,326,358c-.55-.12-1.5.13-1.58-1a1.59,1.59,0,0,1,.47-.2c1.12,0,2.23,0,3.27,0A.8.8,0,0,1,328.53,357.93Zm-.9-7.72c.59.07.87.3.61,1.11l-4.67.65C324,350.81,326.07,350,327.63,350.21Zm-1.69-3.51a17.1,17.1,0,0,1-4.53,1.55c.09-1.18,2.48-2.51,4.58-2.53A.7.7,0,0,1,325.94,346.7Zm-3.05-4.61c-.06.84-2.2,2.73-3.55,3C319.73,343.25,321.37,341.89,322.89,342.09Zm-14,3.2a11.2,11.2,0,0,1,12.55,9.41,9.86,9.86,0,0,1-1.93,7.05c-1.31,1.9-2.94,3.55-4.19,5.5a6.19,6.19,0,0,0-1.16,4.1A27.39,27.39,0,0,1,314,377c-.06.51,0,1.05-.57,1.44-2,0-4.08.05-6.15,0-1,0-1.38-.71-1.14-1.69a34.47,34.47,0,0,0,.68-4.74,3.61,3.61,0,0,0-1.13-3.06,20.16,20.16,0,0,1-3.57-4.54,16.66,16.66,0,0,1-.95-13.81C302.37,347.07,305.39,345.71,308.88,345.29Zm-8.52,1.35c.38.55.38.55-.27,1.42-1-1.37-3-1.45-3.89-3.05A3.64,3.64,0,0,1,300.36,346.64Zm-7.88,2.48a9.28,9.28,0,0,1,4.44,1.08c.41.19.45.56.15,1.17l-5.31-.79C291.4,349.59,291.74,349.16,292.48,349.12Zm-1.57,6c1.85-.15,3.71-1,5.95-.45-1,1.39-3.94,2.18-5.89,1.87A1.2,1.2,0,0,1,290.91,355.1Z" transform="translate(-207.33 -331.33)"/><path class="cls-1" d="M308.81,369.45H310c-.44-5.17-1.82-10-2.87-14.95,1.07,1.44,1.38,3.16,1.93,4.78s.93,3.28,1.43,5.09a2.32,2.32,0,0,0,.27-.51,53.94,53.94,0,0,1,3.18-9.35c.23-.58.42-1.3,1.3-1.19.61.39.45.92.28,1.4s-.46,1.13-.7,1.7a37.89,37.89,0,0,0-3.31,12.49.83.83,0,0,0,.25.7c.35,0,.76.18,1.19-.15a10.57,10.57,0,0,1,2.15-4.67c.89-1.21,1.86-2.38,2.69-3.64,1.26-1.92,2.14-4,1.61-6.38a9.16,9.16,0,0,0-10.4-7.24c-3,.41-5.37,1.78-6.06,4.87A14.77,14.77,0,0,0,305,364.57C306.2,366.26,308,367.5,308.81,369.45Zm3.56-15c-1.46.72-2.95.11-4.29.51A2.71,2.71,0,0,1,312.37,354.44Z" transform="translate(-207.33 -331.33)"/><path class="cls-1" d="M309.2,371.71a1.08,1.08,0,0,0,0,1.07c.81.37,1.88-.42,2.56.72-1,.51-2.06-.17-2.92.54.76.51,1.59-.1,2.22.39a.63.63,0,0,1-.19.91,4.21,4.21,0,0,1-2.11-.17,1.12,1.12,0,0,0-.06,1.06,9.38,9.38,0,0,0,3.17.22,29.88,29.88,0,0,0,.12-4.74Z" transform="translate(-207.33 -331.33)"/></g></svg>