<svg xmlns="http://www.w3.org/2000/svg" viewBox="0 0 248.3 258.76"><defs><style>.cls-1{fill:#fefefe;}</style></defs><g id="Layer_2" data-name="Layer 2"><path class="cls-1" d="M208.21,286.65l22.9,13.71V236.81l27-4.18v34.3L283.43,247l20.18,12v8.74l8.85,4.17v17.48l3.64-.52V273.54c.51.23.8.65,1.33.46v-3.65L307,264.76v-4l1.69.69V257.4L284.3,243.07v-5.59l1.31-.15V235h-1.5v-2.8H282v3l-1.35.2v2.23H282v4.27l-20.66-8.73V232l1.79-.4v-3.43c-1.59-.63-3.14-1.14-4.57-1.86-.91-.47-2-.63-2.66-1.61-4-5.95-8-11.88-12-17.82-1.83-2.7-3.92-5.16-3.51-8.93.47-4.26-1.38-7.5-5.72-8.87v-5.88l1.52-.18v-2.69H234.5v-3h-2.42v3.21l-1.53.31v2.66l1.49-.15V189a6.07,6.07,0,0,0-5.71,6.4c0,1.43,0,2.86,0,4.29a2.65,2.65,0,0,1-.47,1.58c-3.48,5.61-7,11.19-10.42,16.83a4.18,4.18,0,0,1-3.38,2.39,45.46,45.46,0,0,0-5,1v3.69l1.15.53ZM235,193.1c2.42,2.47,1,5.37,1.54,8-.37,0-.52.07-.68.07s-.53,0-.86,0Zm-3.4-.47V201h-1.17C229.61,198.69,230.28,193.53,231.64,192.63Zm-8.78,46.1c3,3.94,1,8,1.91,12.08l-1.91-1.35ZM214,234.79c2.92,3.83.83,7.88,1.78,11.63-1-.09-1.3-.69-1.78-.95Z" transform="translate(-138.59 -177.34)"/><path class="cls-1" d="M277.33,279.24c-.88,2.79-.34,5.67-.44,8.51-.07,2.37,0,4.75,0,7.28L290,293c0-4.92.12-9.73-.05-14.54a5.44,5.44,0,0,0-5.57-5C281.29,273.45,278.43,275.77,277.33,279.24Z" transform="translate(-138.59 -177.34)"/><path class="cls-1" d="M381.51,376.88H142.76v.89H381.55C381.53,377.43,381.52,377.15,381.51,376.88Z" transform="translate(-138.59 -177.34)"/><path class="cls-1" d="M201.12,340.49c0,5.66,0,11.27,0,16.88a5.72,5.72,0,0,0,1,3.38c1.7,2.4,5.58,3.39,9,2.29,2.69-.85,4.34-3.28,4.35-6.53,0-5.16,0-10.31,0-15.46a4.37,4.37,0,0,0-.08-.54h-4.66v15.61a6.44,6.44,0,0,1-.38,2.53,2.49,2.49,0,0,1-4.21.14,6.25,6.25,0,0,1-.6-2.69c0-5.21,0-10.42,0-15.61Z" transform="translate(-138.59 -177.34)"/><path class="cls-1" d="M194.1,333.09a13,13,0,0,0,6.57,0,5.46,5.46,0,0,0,4.38-4.7c.36-2.45.43-4.88-2-6.61-2-1.43-4.44-2-6.54-3.21a2.73,2.73,0,0,1-1.46-2.53,2.41,2.41,0,0,1,1.41-2.33,2.5,2.5,0,0,1,2.79.38c.85.72.64,1.8.85,2.73h4.29a5.38,5.38,0,0,0-4.32-6.46,13.56,13.56,0,0,0-3.76-.19,5.85,5.85,0,0,0-5.67,4.65c-.66,3.67.59,6.37,3.34,7.74,1.62.81,3.42,1.16,5,2.15a2.89,2.89,0,0,1,1.22,3.7,2.45,2.45,0,0,1-2.92,1.67,2.56,2.56,0,0,1-2.45-2.73c0-.42,0-.84,0-1.32h-4.52C189.84,329.67,191.31,332.37,194.1,333.09Z" transform="translate(-138.59 -177.34)"/><path class="cls-1" d="M285.55,324.52H281a15.8,15.8,0,0,1-.41,3.66,2.32,2.32,0,0,1-2.09,1.94,2,2,0,0,1-2.32-1.44c-1.32-4.38-1-8.83-.22-13.24a2.18,2.18,0,0,1,2.59-1.93c1.56.23,2,1.4,2.18,2.78.06.61,0,1.24,0,1.88h4.8c-.17-2.59-.27-5.07-2.47-6.81-1.77-1.39-3.84-1.26-5.89-1.17a6,6,0,0,0-5.8,4.89,33,33,0,0,0-.56,9.3c.18,2.52.22,5.18,2.12,7.17,2.08,2.2,6.66,2.63,9.54,1.05C284.61,331.43,286.18,327.3,285.55,324.52Z" transform="translate(-138.59 -177.34)"/><path class="cls-1" d="M231.26,362.92c0-4.55.08-9,0-13.45a3.82,3.82,0,0,0-3.56-4,5.36,5.36,0,0,0-5.18,2.2v-1.77h-4.13c0,5.64,0,11.18,0,16.73a1.21,1.21,0,0,0,.07.29h4.33V361.8c0-3.52,0-7,0-10.56A2.07,2.07,0,0,1,225,348.9c1.56,0,1.73,1.06,1.74,2.23,0,1.76,0,3.52,0,5.28v6.51Z" transform="translate(-138.59 -177.34)"/><path class="cls-1" d="M235.68,333c0-4.47.09-8.86,0-13.24-.07-2.54-1.31-3.81-3.57-4.12a5,5,0,0,0-5,2.09l-.16-1.69h-4.16V333h4.44c0-3.77,0-7.45,0-11.14,0-1.52.41-2.88,2.31-2.78s1.76,1.51,1.76,2.79c0,3.71,0,7.42,0,11.17Z" transform="translate(-138.59 -177.34)"/><path class="cls-1" d="M303.76,331.43l.61,1.62h4.18a11.31,11.31,0,0,1-.46-3.6c0-3,.05-6,0-9,0-1.45-.29-2.9-1.64-3.75-2.53-1.6-5.25-1.44-7.9-.5a4.45,4.45,0,0,0-2.55,5h3.78c0-.21.05-.4.09-.59.21-1.19.71-2.07,2.11-2a1.75,1.75,0,0,1,1.81,1.74c.15,1.3-.49,2-1.8,2.27a25.28,25.28,0,0,0-3.69,1.12c-2.28.82-3.24,2.79-2.94,5.86a4,4,0,0,0,3.83,3.84C301,333.63,302.69,333.35,303.76,331.43Zm-4.07-2.31c-.32-1.2-.22-2.39.95-3.06a24.93,24.93,0,0,1,3.17-1.3,28,28,0,0,1,0,3.44,2.35,2.35,0,0,1-2.17,2.21A1.58,1.58,0,0,1,299.69,329.12Z" transform="translate(-138.59 -177.34)"/><path class="cls-1" d="M324.68,333.39c2,.3,3.83,0,5.07-1.9.17.59.29,1,.42,1.49h4.35a6.42,6.42,0,0,1-.5-3c0-2.86.06-5.72,0-8.57-.06-1.61.16-3.41-1.44-4.54-2.51-1.76-5.3-1.57-8-.65a4.18,4.18,0,0,0-2.57,5.09h3.73a3.13,3.13,0,0,0,.07-.49c0-1.27.61-2.1,1.95-2.14a1.67,1.67,0,0,1,1.92,1.46,1.91,1.91,0,0,1-1.77,2.53c-.55.09-1.08.31-1.62.45-2.45.66-4.65,1.47-5,4.55S322.21,333,324.68,333.39Zm1.86-7.29a25.4,25.4,0,0,1,3.16-1.31c0,1.21.05,2.33,0,3.45a2.19,2.19,0,0,1-2.07,2.14c-.89.15-1.64,0-1.88-1C325.43,328.17,325.22,326.86,326.54,326.1Z" transform="translate(-138.59 -177.34)"/><path class="cls-1" d="M256,331.54c.21.58.38,1,.54,1.5h4.07c-.11-1.11-.27-2.12-.28-3.14,0-3,0-6,0-9,0-1.54-.09-3.18-1.59-4.17-2.51-1.65-5.23-1.45-7.9-.56a4.42,4.42,0,0,0-2.54,5.12H252c.05-.28.08-.44.1-.6.15-1.17.61-2,1.95-2.08a1.71,1.71,0,0,1,1.93,1.69,1.86,1.86,0,0,1-1.74,2.3,30.08,30.08,0,0,0-3.42,1,4.65,4.65,0,0,0-3.26,4.69c0,2.6.85,4.43,2.66,4.94C252.4,333.85,254.48,333.62,256,331.54ZM254,330.38c-.88.15-1.64,0-1.94-.93a2.76,2.76,0,0,1,.54-3.2c.95-.84,2.25-.83,3.4-1.47,0,1.24.08,2.36,0,3.47A2.2,2.2,0,0,1,254,330.38Z" transform="translate(-138.59 -177.34)"/><path class="cls-1" d="M209.15,333.05a4.83,4.83,0,0,0,6.22-1.56l.45,1.52H220a8,8,0,0,1-.25-1.32c-.07-4-.12-8-.2-11.94a3.49,3.49,0,0,0-1.84-3.2,8.81,8.81,0,0,0-7.66-.3,4.3,4.3,0,0,0-2.48,5h3.75a4.34,4.34,0,0,0,.14-.61c.08-1.3.71-2.05,2.06-2a1.73,1.73,0,0,1,1.82,1.61c.19,1.36-.43,2.08-1.78,2.36a29.26,29.26,0,0,0-3.77,1.15,4.46,4.46,0,0,0-2.95,4.31C206.73,330.09,207.09,332.15,209.15,333.05Zm3.11-7.08c.94-.45,2-.76,3.15-1.22-.3,1.61.37,3.14-.48,4.53a2.35,2.35,0,0,1-2.67,1.08c-.91-.18-1-1.05-1.07-1.73A2.31,2.31,0,0,1,212.26,326Z" transform="translate(-138.59 -177.34)"/><path class="cls-1" d="M316.1,346h-4.65c1.18,4.2,2.34,8.32,3.51,12.43.36,1.27.74,2.53,1.12,3.8.58,2-.32,2.8-3.3,3v3.27c1,0,1.84,0,2.74,0a4.38,4.38,0,0,0,4.57-3.35c.72-2.26,1.31-4.56,1.92-6.86,1.09-4.09,2.15-8.19,3.24-12.32h-4.48l-2.18,11.57C317.68,353.29,316.89,349.6,316.1,346Z" transform="translate(-138.59 -177.34)"/><path class="cls-1" d="M268.41,355.19a16,16,0,0,0-.57-6.05,5,5,0,0,0-5-3.67c-2.57-.1-5,.27-6.37,2.9-1.56,3.06-1.19,6.34-.85,9.56.37,3.43,2.15,5.05,5.49,5.43,4.3.49,7.26-2.12,6.95-6.2h-3.8c-.56,1.36-.35,3.38-2.63,3.09-1.42-.18-2.15-2.54-1.66-5.06ZM261,348.87a1.71,1.71,0,0,1,2.21,0c1,.93.94,2.23.95,3.53h-4.23C259.74,351,259.86,349.75,261,348.87Z" transform="translate(-138.59 -177.34)"/><path class="cls-1" d="M279.63,398.47c-1.09-4.55-2-8.48-3-12.42h-4.14v16.66H275V389.64l.18,0q1.6,6.56,3.22,13.1h2.27c1.05-4.33,2.1-8.63,3.15-12.93h.2v12.9h2.58V386.07h-4.07C281.62,390,280.69,394,279.63,398.47Z" transform="translate(-138.59 -177.34)"/><path class="cls-1" d="M286,363.35c2.49.21,4.94-.11,6.45-2.4a5.23,5.23,0,0,0,0-5.92c-1.07-1.71-3.07-1.91-4.79-2.53-1.17-.42-2.46-.71-2.71-2.2a1.92,1.92,0,0,1,2-1.76c1.74-.08,1.81,1.29,2,2.46h3.88c.1-1.64,0-3.19-1.34-4.23-1.91-1.5-4.17-1.54-6.45-1.13a5,5,0,0,0-4.24,3.91,4.53,4.53,0,0,0,2.47,5.23,30.16,30.16,0,0,0,4.27,1.76,1.81,1.81,0,0,1,1.42,1.69,1.74,1.74,0,0,1-.93,1.83,2.4,2.4,0,0,1-2.45-.13c-1.05-.64-.79-1.72-1-2.63h-3.88C280.36,361,282.08,363,286,363.35Z" transform="translate(-138.59 -177.34)"/><path class="cls-1" d="M250.1,363l4.28-17h-4.45c-.74,3.87-1.47,7.67-2.27,11.88-.87-4.27-1.64-8.07-2.41-11.87h-4.64c1.5,5.75,3,11.39,4.42,17Z" transform="translate(-138.59 -177.34)"/><path class="cls-1" d="M239.57,329.17c0,1.69,0,3.6,2.29,3.91a34.89,34.89,0,0,0,4.58,0V330c-1.3.29-2.4,0-2.45-1.33-.12-3.14,0-6.29,0-9.57h2.48V316h-2.51v-4.73h-4.35V316h-2.2v3.07h2.19C239.56,322.54,239.52,325.86,239.57,329.17Z" transform="translate(-138.59 -177.34)"/><path class="cls-1" d="M311.1,348.9v-3.06h-2.46v-4.7h-4.39v4.79H302v3h2.32c0,3.85,0,7.56,0,11.28a2.44,2.44,0,0,0,1.53,2.52c1.75.73,3.48.28,5.22.24v-3.15a3.06,3.06,0,0,1-2.32-.53V348.9Z" transform="translate(-138.59 -177.34)"/><path class="cls-1" d="M343.17,402.73c0-3.49,0-6.88,0-10.26a2.44,2.44,0,0,0-1.54-2.34c-2-.84-3.41,0-4.66,1.46a3.05,3.05,0,0,0-2.07-1.71c-1.52-.37-2.71.38-3.81,1.46l-.18-1.09h-2.27v12.44h2.46v-8.24c0-1.36.4-2.56,2-2.57s1.58,1.31,1.59,2.45c0,2.78,0,5.56,0,8.38h2.46v-8c0-1.46.4-2.8,2.11-2.79s1.44,1.5,1.45,2.62c0,2.74,0,5.49,0,8.22Z" transform="translate(-138.59 -177.34)"/><path class="cls-1" d="M200.72,394.66c0-1.38.27-2.76,2-2.78s1.55,1.5,1.57,2.64c0,2.72,0,5.44,0,8.2h2.53c0-2.86,0-5.67,0-8.49,0-1.31.57-2.33,2-2.36s1.54,1.19,1.55,2.28c0,2.84,0,5.69,0,8.56h2.44c0-3.48,0-6.9,0-10.31a2.16,2.16,0,0,0-.5-1.45c-1.45-1.76-3.91-1.51-5.66.64a3.22,3.22,0,0,0-2.85-1.79c-1.28,0-2.13.8-3.11,1.51-.06-.45-.11-.77-.16-1.1h-2.23v12.48h2.46C200.72,400,200.71,397.31,200.72,394.66Z" transform="translate(-138.59 -177.34)"/><path class="cls-1" d="M236.05,419.22a3.72,3.72,0,0,0-4.4,1.56c-1.4-2.24-2.93-2.32-5.94-.36-.05-.36-.1-.71-.15-1h-2.2V432h2.38c0-2.81,0-5.56,0-8.32,0-1.43.49-2.62,2-2.62s1.54,1.33,1.54,2.5V432h2.47c0-2.85,0-5.67,0-8.48A2.35,2.35,0,0,1,233,421.3c.78-.43,1.45-.32,2.27.51V432h2.64c0-3.52.05-6.94,0-10.36A2.44,2.44,0,0,0,236.05,419.22Z" transform="translate(-138.59 -177.34)"/><path class="cls-1" d="M145.25,386.26c-2.19-.51-4.41-.12-6.66-.26v16.75c1.87,0,3.63,0,5.39,0a4.73,4.73,0,0,0,4.88-4,20.94,20.94,0,0,0-.08-8.88A4.38,4.38,0,0,0,145.25,386.26Zm1,11.93c-.41,2.2-1.9,2.9-4.92,2.43V388.21c3.15-.74,4.63.19,5,3.33A21.2,21.2,0,0,1,146.28,398.19Z" transform="translate(-138.59 -177.34)"/><path class="cls-1" d="M288.44,333h4.27V310.54h-4.27Z" transform="translate(-138.59 -177.34)"/><path class="cls-1" d="M315.43,316.06h-4.17v17h4.34v-8.6c0-3.81.68-4.51,4.46-4.56.05,0,.1-.07.15-.11v-4.05a3.43,3.43,0,0,0-2.65.33,15.93,15.93,0,0,0-2.13,1.87Z" transform="translate(-138.59 -177.34)"/><path class="cls-1" d="M270.84,346v17h4.37V361.6c0-2.73,0-5.45,0-8.17,0-2.91.51-3.35,4.45-3.74V345.5c-2.1-.28-3.43.77-4.67,2.49v-2Z" transform="translate(-138.59 -177.34)"/><path class="cls-1" d="M298.66,422.32a5.15,5.15,0,0,1-2.37-1.32,2.6,2.6,0,0,1-.26-3.06,2.13,2.13,0,0,1,2.31-1c1.55.15,1.89,1.31,2,2.61h2.61a4.89,4.89,0,0,0-.56-2.84c-1-1.6-3.14-2.21-5.82-1.66a4.74,4.74,0,0,0-2.8,7.26c1.24,1.75,3.23,2,5,2.75a2.76,2.76,0,0,1,1.9,3.36c-.27,1.45-1.32,1.95-2.7,1.87-1.67-.08-2.37-1.07-2.45-2.64,0-.29-.08-.57-.12-.86h-2.53c-.48,4.12,2.65,6.43,7.1,5.35a4.91,4.91,0,0,0,3.17-6.59C302.26,423.47,300.42,423,298.66,422.32Z" transform="translate(-138.59 -177.34)"/><path class="cls-1" d="M242.88,420.57c0-.41-.07-.8-.11-1.21h-2.35V436.1h2.66v-5.2c2,2.32,5,1.78,6-.95a14,14,0,0,0,.29-7.64C248.75,419,245.2,417.72,242.88,420.57Zm4,8a1.8,1.8,0,0,1-1.93,1.73c-1.18,0-1.68-.78-1.82-1.83s-.22-1.91-.32-2.87c.1-.9.22-1.78.31-2.67a1.82,1.82,0,0,1,1.8-1.87,1.87,1.87,0,0,1,2,1.76A16.82,16.82,0,0,1,246.84,428.56Z" transform="translate(-138.59 -177.34)"/><path class="cls-1" d="M194.68,400.16c-.14-2.7,0-5.41,0-8.19h2v-1.81h-2v-3.5h-2.52v3.62c-2-.29-4.21-1.14-5.42,1.83l-.12-1.85h-2.44v12.45h2.48V396c0-3.09,2.52-4.82,5.5-3.79a.77.77,0,0,1,0,.19q0,3.54,0,7.08c0,3.28,1.26,4.15,4.48,3.12v-1.71C195.88,400.66,194.74,401.16,194.68,400.16Z" transform="translate(-138.59 -177.34)"/><path class="cls-1" d="M168.22,389.89a3.3,3.3,0,0,0-3.74,1.67c0-.55-.06-.92-.1-1.34h-2.32v16.57h2.58v-5.22c2.14,2.31,4.92,1.86,6-.81,1-2.46.76-5,.36-7.54A3.77,3.77,0,0,0,168.22,389.89Zm.15,9.71a1.74,1.74,0,0,1-1.84,1.48,1.82,1.82,0,0,1-1.8-1.67c-.17-1-.25-2-.36-3.05.11-1,.16-1.93.35-2.86a1.8,1.8,0,0,1,1.79-1.65,1.73,1.73,0,0,1,1.83,1.47A13.6,13.6,0,0,1,168.37,399.6Z" transform="translate(-138.59 -177.34)"/><path class="cls-1" d="M189.77,420.43c-2.34-2.16-5.22-1.76-6.11.77a12.51,12.51,0,0,0-.28,7.51c1.06,3.94,3.48,4.73,6.6,2.15V432h2.31V415.23h-2.52Zm-.15,8.3c-.43,1.6-1.3,1.9-3.18,1.14a11.64,11.64,0,0,1-.23-7.86,1.41,1.41,0,0,1,1.56-1,1.75,1.75,0,0,1,1.69,1.14A11,11,0,0,1,189.62,428.73Z" transform="translate(-138.59 -177.34)"/><path class="cls-1" d="M208.08,426a5.45,5.45,0,0,1-.3,2.44,2.1,2.1,0,0,1-2.28,1.89,2.18,2.18,0,0,1-2.3-1.89,22,22,0,0,1,0-9.56,2.38,2.38,0,0,1,3.08-1.82c1.79.47,1.39,2.09,1.75,3.35h2.53c.2-3-.92-4.81-3.23-5.33-3.28-.73-5.81.26-6.57,3.12a18.69,18.69,0,0,0,.2,11.34c.92,2.51,3.92,3.58,6.65,2.57a5.23,5.23,0,0,0,2.93-6.11Z" transform="translate(-138.59 -177.34)"/><path class="cls-1" d="M313.66,390.14c-1.81-.82-3.24-.13-4.71,1.29v-5.35h-2.48v16.6h2.47c0-2.76,0-5.45,0-8.14,0-1.42.41-2.66,2.09-2.68s1.66,1.39,1.67,2.58c0,2.75,0,5.5,0,8.28h2.42c0-3.59,0-7.1,0-10.62A2.19,2.19,0,0,0,313.66,390.14Z" transform="translate(-138.59 -177.34)"/><path class="cls-1" d="M238.67,345.92H234.4v17h4.27Z" transform="translate(-138.59 -177.34)"/><path class="cls-1" d="M300.08,363v-17h-4.27v17Z" transform="translate(-138.59 -177.34)"/><path class="cls-1" d="M169.92,430a2.94,2.94,0,0,1-.08-.54c0-2.33-.05-4.65,0-7a3.09,3.09,0,0,0-2.68-3.37c-3.41-.83-6.07,1-5.66,4h2.29c0-.31.09-.57.1-.82a1.44,1.44,0,0,1,1.16-1.43,1.77,1.77,0,0,1,2,.47,1.8,1.8,0,0,1,.26,2c-.46.92-1.45.93-2.29,1.15-2.88.71-3.83,1.64-3.93,3.8-.07,1.56.07,3.14,1.72,3.76a3.52,3.52,0,0,0,4.62-1.42c.73,1.7,1.94,1.68,3.24,1.37a2.09,2.09,0,0,0,.17-1.61Zm-4.25.33a1.57,1.57,0,0,1-2.06-1.18c-.46-1.83.54-2.78,3.74-3.59C167.76,428.34,167.14,430.08,165.67,430.34Z" transform="translate(-138.59 -177.34)"/><path class="cls-1" d="M177.62,419a4.42,4.42,0,0,0-2.93,1.59c0-.48-.05-.84-.07-1.2h-2.4V432h2.6c0-2.91,0-5.73,0-8.56,0-1.44.65-2.33,2-2.37s1.68,1.08,1.66,2.29c0,2.88,0,5.76,0,8.67h2.56c0-3.42.1-6.71,0-10C180.94,419.77,179.78,418.9,177.62,419Z" transform="translate(-138.59 -177.34)"/><path class="cls-1" d="M181.58,399.55c0-2,0-4.06,0-6.08.06-1.84-.68-3.08-2.5-3.49-2.76-.64-6.38.27-5.79,3.94h2.24c0-.27.06-.47.07-.66a1.58,1.58,0,0,1,1.73-1.64c.9,0,1.65.2,1.84,1.24A1.62,1.62,0,0,1,178,395c-.67.18-1.32.4-2,.56-1.65.38-2.87,1.23-3.06,3s-.18,3.43,1.65,4.17a3.55,3.55,0,0,0,4.66-1.34c.74,1.69,2,1.63,3.44,1.25v-1.48C181.74,401,181.56,400.37,181.58,399.55Zm-2.83.6a2,2,0,0,1-2.05,1,1.28,1.28,0,0,1-1.17-1.05c-.19-.87-.38-1.9.47-2.46a25.71,25.71,0,0,1,3.28-1.55C179.08,397.59,179.51,398.9,178.75,400.15Z" transform="translate(-138.59 -177.34)"/><path class="cls-1" d="M295,401.35c.69,1.72,2,1.67,3.41,1.32,0-.47.06-.92.09-1.5-.89-.15-1.08-.73-1.07-1.46,0-2.06,0-4.12,0-6.18,0-1.84-.69-3.13-2.58-3.56-2.91-.67-6.43.52-5.74,4h2.19a2.73,2.73,0,0,1,.86-2.12c.89-.15,2.05-.72,2.65.7s-.13,2.31-1.59,2.63c-.55.12-1.09.28-1.63.42a3.43,3.43,0,0,0-2.95,3.35c-.07,1.56,0,3.19,1.74,3.83A3.52,3.52,0,0,0,295,401.35Zm-1.84-.21a1.45,1.45,0,0,1-1.93-1.21c-.44-1.85.41-2.67,3.82-3.69C294.71,398.09,295.7,400.33,293.13,401.14Z" transform="translate(-138.59 -177.34)"/><path class="cls-1" d="M355.05,402.64v-1.49c-.92-.1-1-.8-1-1.53v-6.08c0-1.8-.65-3.15-2.56-3.57-2.79-.63-6.38.36-5.77,3.95H348a2.5,2.5,0,0,1,.73-2.05,2.66,2.66,0,0,1,2.52.12c.8,1.82.48,2.57-1.34,3.13-.6.19-1.22.3-1.82.47a3.49,3.49,0,0,0-2.81,3.58c0,1.54.14,3.1,1.89,3.64s3.33.36,4.48-1.47C352.31,403.11,353.58,403,355.05,402.64Zm-3.65-3a1.89,1.89,0,0,1-1.79,1.58,1.4,1.4,0,0,1-1.64-1,2.3,2.3,0,0,1,.42-2.57c.87-.86,2.16-.71,3.32-1.7C351.6,397.43,351.59,398.53,351.4,399.6Z" transform="translate(-138.59 -177.34)"/><path class="cls-1" d="M230.69,391.86c1.71-.07,1.68,1.22,1.68,2.42v8.41H235c0-3.38.05-6.7,0-10a2.62,2.62,0,0,0-1.58-2.54c-1.93-.83-3.42-.09-4.82,1.34,0-.5,0-.88-.06-1.23h-2.36V402.7h2.55v-8.31C228.68,393,229.12,391.92,230.69,391.86Z" transform="translate(-138.59 -177.34)"/><path class="cls-1" d="M338.87,419.27c-1.89-.64-3.41-.12-4.8,1.55v-1.44H331.8V432h2.47v-1.17c0-2.56,0-5.12,0-7.68a2,2,0,0,1,2.05-2.1c1.3,0,1.6.92,1.59,2,0,.89,0,1.79,0,2.69,0,2.07,0,4.15,0,6.26h2.46c0-3.66.06-7.27,0-10.88A2.08,2.08,0,0,0,338.87,419.27Z" transform="translate(-138.59 -177.34)"/><path class="cls-1" d="M258,428.27a1.84,1.84,0,0,1-2.15,2c-1.34,0-1.58-.92-1.57-2,0-2.95,0-5.89,0-8.86h-2.55c.09,3.57-.23,7.09.21,10.59a2.52,2.52,0,0,0,2.62,2.34,4.25,4.25,0,0,0,3.64-1.68c0,.59.07,1,.09,1.35h2.27V419.38H258C258,422.42,258,425.35,258,428.27Z" transform="translate(-138.59 -177.34)"/><path class="cls-1" d="M224,398.59h-2.27c-.29,1.5-.51,3.11-2.61,2.65-1.27-.28-1.92-2.52-1.37-4.44h6.35a26.15,26.15,0,0,0,0-3.08c-.24-1.91-1.1-3.45-3.16-3.81-1.88-.33-3.73-.11-4.76,1.75a10.32,10.32,0,0,0-.28,9.44c.8,1.89,3.28,2.47,5.65,1.66A4,4,0,0,0,224,398.59Zm-5.42-6.67a1.76,1.76,0,0,1,2.07-.05c1.09.74.91,1.94.9,3.19H218.2l-.56-.07C217.6,393.83,217.61,392.69,218.59,391.92Z" transform="translate(-138.59 -177.34)"/><path class="cls-1" d="M160.14,396.75c-.06-1.17,0-2.23-.18-3.27a3.81,3.81,0,0,0-3.35-3.63c-2-.29-3.85.2-4.75,2.09a10.21,10.21,0,0,0-.4,8.07c1.17,3.17,4.25,4.07,7,2.16a3.78,3.78,0,0,0,1.53-3.55h-2.36c-.14,1.49-.46,2.81-2.25,2.7-1.39-.09-2.08-1.94-1.71-4.57Zm-3.51-4.89c1,.91.9,2,.87,3.14h-3.85C153.33,392.37,154.47,391.2,156.63,391.86Z" transform="translate(-138.59 -177.34)"/><path class="cls-1" d="M323.23,402.93a3.77,3.77,0,0,0,3-4.32H324c-.1,1.57-.48,2.92-2.39,2.67-1.31-.16-2.08-2.42-1.57-4.46h6.42c-.06-1.28-.06-2.4-.17-3.51a3.58,3.58,0,0,0-3.08-3.41c-1.76-.31-3.52-.13-4.59,1.57-1.79,2.84-1.58,5.9-.69,8.95C318.53,402.58,320.63,403.51,323.23,402.93Zm-2.33-11a1.71,1.71,0,0,1,2.05-.06c1.09.76,1,1.95.89,3.13h-4C319.94,393.83,319.92,392.69,320.9,391.93Z" transform="translate(-138.59 -177.34)"/><path class="cls-1" d="M241.93,286.17l4.8-.8v12.8l3.84-.64V282.61l-9.14,1.44C241.61,284.81,241.76,285.46,241.93,286.17Z" transform="translate(-138.59 -177.34)"/><path class="cls-1" d="M358.91,419.1c-1.94-.28-3.67,0-4.83,1.86-1.48,2.38-1.38,7.8.25,10,1,1.32,3.64,1.85,5.39,1.07a4,4,0,0,0,2.32-4.14h-2.31c-.11,1.51-.52,2.88-2.31,2.69-1.45-.16-2.16-2.35-1.62-4.62h6.35a21.6,21.6,0,0,0,0-3.13C361.84,421,361.05,419.4,358.91,419.1Zm-3.19,5.13c-.16-2.16.66-3.61,2-3.45,2.13.23,1.84,1.92,1.88,3.45Z" transform="translate(-138.59 -177.34)"/><path class="cls-1" d="M217.51,419.08a4.26,4.26,0,0,0-4.37,1.45c-1.14,1.5-1.21,3.23-1.24,5.43a8.73,8.73,0,0,0,.67,3.84,4.06,4.06,0,0,0,4.28,2.53,3.87,3.87,0,0,0,3.79-2.66,12,12,0,0,0,.16-7.62A3.82,3.82,0,0,0,217.51,419.08Zm1,9.39c-.13,1-.54,1.83-1.74,1.9a1.77,1.77,0,0,1-2.11-1.67,16.62,16.62,0,0,1,.05-6.21,2.71,2.71,0,0,1,1.13-1.5c1.77-.32,2.48.57,2.67,2.13A21.29,21.29,0,0,1,218.55,428.47Z" transform="translate(-138.59 -177.34)"/><path class="cls-1" d="M278.32,426a22.9,22.9,0,0,0-.26-3.93,3.51,3.51,0,0,0-3.34-3c-2-.22-3.71.25-4.66,2.2-1.09,2.25-.92,4.64-.65,7,.49,4.36,4.4,4.84,7,3.35a3.57,3.57,0,0,0,1.74-3.74h-2.31c-.07,1.5-.53,2.76-2.22,2.7-1.41,0-2.21-2.15-1.84-4.63ZM272.9,421a1.56,1.56,0,0,1,1.87,0c1.12.79,1.12,2,1,3.25h-4A3.54,3.54,0,0,1,272.9,421Z" transform="translate(-138.59 -177.34)"/><path class="cls-1" d="M326.25,419.05c-2.24-.31-3.92.41-4.74,2.21a11.69,11.69,0,0,0-.32,8.45c.7,2.31,3.05,3.19,5.62,2.44a3.74,3.74,0,0,0,2.74-4.24H327.3a2.57,2.57,0,0,1-1.5,2.63,1.51,1.51,0,0,1-1.8-.49c-1-1.17-.86-2.61-.79-4.11h6.43a24.53,24.53,0,0,0,0-3.44A3.69,3.69,0,0,0,326.25,419.05Zm1,5.19h-4a3.36,3.36,0,0,1,1.12-3.21,1.55,1.55,0,0,1,1.87,0C327.3,421.79,327.33,423,327.21,424.24Z" transform="translate(-138.59 -177.34)"/><path class="cls-1" d="M257.44,401.07a11.1,11.1,0,0,0,.49-8.14,4,4,0,0,0-3.37-3.06,4.2,4.2,0,0,0-4.53,1.74,7.49,7.49,0,0,0-.95,4.78c0,.67,0,1.33,0,2a4.87,4.87,0,0,0,3.23,4.52C254.44,403.44,256.57,402.83,257.44,401.07Zm-6-4.58a32.41,32.41,0,0,1,.46-3.22,1.73,1.73,0,0,1,1.78-1.52,1.68,1.68,0,0,1,1.81,1.45,16.22,16.22,0,0,1,.07,6.51,1.89,1.89,0,0,1-3.7,0C251.67,398.64,251.58,397.58,251.44,396.49Z" transform="translate(-138.59 -177.34)"/><path class="cls-1" d="M385.07,396.09c-1.1-.51-2.26-.89-3.37-1.37a1.57,1.57,0,0,1-.94-2c.15-.83.78-1.1,1.52-1.15,1.52-.11,1.92.85,1.92,2.18h2.27c.31-3-2.35-4.83-5.35-3.81s-3.86,3.93-1.89,5.94c1,1,2.45,1.26,3.75,1.68a1.9,1.9,0,0,1,1.35,2.42c-.18,1.08-1,1.28-1.92,1.32-1.87.08-1.89-1.35-2-2.63h-2.26c.15,1.07,0,2.06.68,2.92,1.43,1.88,3.39,1.48,5.27,1.17a3.28,3.28,0,0,0,2.77-3.08A3.22,3.22,0,0,0,385.07,396.09Z" transform="translate(-138.59 -177.34)"/><path class="cls-1" d="M346.91,420.93a1.51,1.51,0,0,1,1.68.75,10,10,0,0,1,.52,1.83h2.32c.1-2.34-.89-3.79-2.94-4.39a4.42,4.42,0,0,0-5.15,2.12c-1.22,2.48-.88,5.12-.49,7.7s2.77,3.87,5.6,3.32a4.12,4.12,0,0,0,2.88-4.87h-2.09c-.08.44-.16.86-.25,1.27-.19.94-.56,1.68-1.7,1.72a1.77,1.77,0,0,1-2-1.58,13.32,13.32,0,0,1,.05-6.4A1.72,1.72,0,0,1,346.91,420.93Z" transform="translate(-138.59 -177.34)"/><path class="cls-1" d="M373.83,389.93c-1.61-.57-4.12.19-4.92,1.62a10.56,10.56,0,0,0-.37,9.22c.81,2.13,3.34,2.83,5.79,2,1.54-.52,2.65-2.71,2.3-4.58h-2.07a7.85,7.85,0,0,0-.35,1.25c-.11.86-.44,1.53-1.35,1.71a1.68,1.68,0,0,1-2.09-1.24,11.45,11.45,0,0,1,.22-7.38c.34-.83,1.13-.81,1.88-.74a1.31,1.31,0,0,1,1.19,1.14,11.87,11.87,0,0,1,.2,1.32h2.45A3.92,3.92,0,0,0,373.83,389.93Z" transform="translate(-138.59 -177.34)"/><path class="cls-1" d="M309.15,421c1.88-.27,2.07,1.16,2.24,2.55h2.35c0-2.54-1-4-3.15-4.45a4.29,4.29,0,0,0-5.1,2.56,12.42,12.42,0,0,0-.28,7.53c.55,2.54,2.94,3.7,5.67,3.08a4,4,0,0,0,2.73-4.84h-2.08c0,.35-.1.68-.15,1-.15,1-.44,1.89-1.67,2s-1.77-.64-2.08-1.78a12.67,12.67,0,0,1-.17-4.94C307.59,422.6,307.63,421.17,309.15,421Z" transform="translate(-138.59 -177.34)"/><path class="cls-1" d="M263.58,402.71V392h2v-1.86h-1.94a2.72,2.72,0,0,1,.11-1.85c.6-.52,1.26-.23,1.84-.45V386c-3.23-.35-4.61,0-4.76,4.13l-1.53.09v1.83h1.63v10.66Z" transform="translate(-138.59 -177.34)"/><path class="cls-1" d="M266.15,415.79h-2.62v3.49l-1.62.1v1.86l1.68.1c0,2.48,0,4.86,0,7.25,0,3.37,1.11,4.19,4.49,3.34v-1.8l-1.72-.08v-8.79h1.74v-2h-2Z" transform="translate(-138.59 -177.34)"/><path class="cls-1" d="M361.61,392v-1.84h-2.06v-3.51h-2.44v3.44l-1.8.15V392l1.82.13c0,2.51,0,4.89,0,7.28,0,3.4,1.09,4.19,4.45,3.26v-1.73c-1.72-.18-1.94-.22-1.95-.79,0-2.67,0-5.35,0-8.1Z" transform="translate(-138.59 -177.34)"/><path class="cls-1" d="M300.47,399.47c0,3.28,1.23,4.13,4.52,3.12,0-.28,0-.58,0-.87s0-.58-.05-.85c-1.69-.13-1.94-.22-1.95-.92,0-2.62,0-5.23,0-7.94h2v-1.9h-2v-3.48h-2.49v3.48l-1.78.12V392l1.81.13C300.47,394.63,300.46,397.05,300.47,399.47Z" transform="translate(-138.59 -177.34)"/><path class="cls-1" d="M242.49,402.62v-1.75c-.7-.17-1.51.2-1.89-.56V392h1.9v-1.81h-2v-3.48H238v3.44l-1.73.13V392l1.72.13a2.44,2.44,0,0,1,.07.32c0,2.36,0,4.71,0,7.07C238.06,402.74,239.27,403.59,242.49,402.62Z" transform="translate(-138.59 -177.34)"/><path class="cls-1" d="M283,420.91c-.06-.58-.1-1-.15-1.53h-2.46V432h2.53v-6.43c0-3.44.2-3.66,3.56-4.1v-2.31C284.82,418.68,283.87,419.61,283,420.91Z" transform="translate(-138.59 -177.34)"/><path class="cls-1" d="M240.34,240.56A2.17,2.17,0,0,0,238,242.1c2,3.82.45,7.55,1.21,11.08l2.91-.33c0-3.29-.06-6.54,0-9.78C242.12,241.71,241.75,240.66,240.34,240.56Z" transform="translate(-138.59 -177.34)"/><path class="cls-1" d="M305,290.48l2.81-.33c0-3.68.05-7.33,0-11,0-.91-.86-1.3-1.74-1.29a2.4,2.4,0,0,0-2.31,1.53C305.9,283.12,304.16,286.93,305,290.48Z" transform="translate(-138.59 -177.34)"/><path class="cls-1" d="M250.35,239.16a2.06,2.06,0,0,0-2.26,2c1.85,3.34.45,7.06,1.13,10.58l2.85-.34c0-3.38,0-6.63,0-9.88C252.11,240.24,251.74,239.23,250.35,239.16Z" transform="translate(-138.59 -177.34)"/><path class="cls-1" d="M316,432h2.39V419.39H316Z" transform="translate(-138.59 -177.34)"/><path class="cls-1" d="M363.23,402.71h2.42V390.22h-2.42Z" transform="translate(-138.59 -177.34)"/><path class="cls-1" d="M284.25,252.61a2.31,2.31,0,0,0-2.79,1.88c2.23,1.82.54,4.4,1.34,6.56l2.89-.47c0-1.92-.05-3.68,0-5.43C285.75,254,285.58,252.85,284.25,252.61Z" transform="translate(-138.59 -177.34)"/><path class="cls-1" d="M238.65,340.23h-4.26v3.65h4.26Z" transform="translate(-138.59 -177.34)"/><path class="cls-1" d="M300.1,340.24h-4.36v3.6h4.36Z" transform="translate(-138.59 -177.34)"/><path class="cls-1" d="M318.34,415.05H316v2.51h2.38Z" transform="translate(-138.59 -177.34)"/><path class="cls-1" d="M365.64,388.36v-2.44h-2.4v2.44Z" transform="translate(-138.59 -177.34)"/></g></svg>