<svg xmlns="http://www.w3.org/2000/svg" viewBox="0 0 338.64 489.03"><defs><style>.cls-1{fill:#fff;}</style></defs><g id="Layer_4" data-name="Layer 4"><path class="cls-1" d="M291.58,311.66c-4.76,0-9.51,0-14.27,0-2.45,0-2.62.16-2.62,2.59q0,9.93.05,19.87c0,2.75.93,3.62,3.66,3.64.85,0,1.7,0,2.55,0a1.29,1.29,0,0,1,1.3,1.53,1.21,1.21,0,0,1-1.24,1.33,16.36,16.36,0,0,1-2.8,0,51.66,51.66,0,0,0-14.16,0,15.29,15.29,0,0,1-2.79,0,1.2,1.2,0,0,1-1.25-1.31c0-.89.3-1.51,1.26-1.55s2.21,0,3.31,0c2.32,0,2.85-.55,2.93-2.81,0-1.36.09-2.72.06-4.08-.14-7.63.61-15.26.38-22.88-.18-6.28-.25-12.55-.41-18.82-.08-2.87-1-3.71-3.87-3.89-.85-.05-1.7,0-2.55-.05-.65,0-1.17-.18-1.22-1s.5-1.14,1.28-1.17a60.66,60.66,0,0,1,6.58-.18c4.42.33,8.82,0,13.22.18.34,0,.68,0,1,.06.61.09.83.49.83,1.07a.87.87,0,0,1-.89,1c-1.1,0-2.2,0-3.31.06-2.22.06-2.9.63-3.58,2.81a6.46,6.46,0,0,0-.31,2c0,5.52-.05,11,0,16.56,0,2.41.16,2.57,2.63,2.58q14.13,0,28.27,0c2.47,0,2.68-.21,2.68-2.56,0-6,.08-12-.44-18.05-.21-2.51-1-3.27-3.49-3.32l-2.54,0c-.68,0-1.13-.25-1.14-1a1,1,0,0,1,1.06-1.11l1.78,0h16.05c.51,0,1,0,1.53,0,.74,0,1,.47,1,1.18a.9.9,0,0,1-1,.93c-.93,0-1.87,0-2.8.05a2.84,2.84,0,0,0-2.86,2.9c-.91,12-.39,24.08-.34,36.11,0,3.45.28,6.93.36,10.4.06,2.35.71,3,3,3.07a12.44,12.44,0,0,1,3,.28c.62.17,1.13.31,1.12,1.1a1.31,1.31,0,0,1-1.11,1.47,7.91,7.91,0,0,1-2.28,0,54.13,54.13,0,0,0-14.16,0c-1.09.13-2.21,0-3.31.07s-1.74-.4-1.78-1.4c0-1.2.85-1.53,1.88-1.54,1.19,0,2.38-.05,3.57,0,1.59.09,2.33-.55,2.4-2.19.27-7.29.52-14.57.46-21.87,0-1.82-1-2.06-2.46-2-4.75,0-9.51,0-14.26,0Z" transform="translate(-121.81 -147.24)"/><path class="cls-1" d="M293,549.64c-1.64,1.18-1.35,3-1.37,4.6-.09,8-.1,16-.11,23.94,0,7.81,0,15.62,0,23.43,0,.8.34,1.94-.47,2.33-1,.5-1.62-.68-2.23-1.29Q273.25,587.29,258.64,571q-5.12-5.65-10.28-11.26a1.66,1.66,0,0,0-1.55-.76,13.84,13.84,0,0,0-.18,4.32c.62,10.93.34,21.88.92,32.81.15,2.79.13,5.62,3.31,7.66h-10.2a5.26,5.26,0,0,0,2.81-5.18q.09-20.37.23-40.75a57.45,57.45,0,0,1,.24-7.87c.09-.64-.31-1.54.44-1.84.92-.36,1.25.67,1.73,1.18,3.43,3.64,6.82,7.3,10.22,11q8.15,8.76,16.28,17.53c4.25,4.6,8.47,9.23,12.71,13.85a19.38,19.38,0,0,0,2,2c.57.47,1.14.34,1.24-.51a13.77,13.77,0,0,0,.06-2q-.36-18.33-.73-36.66a5.27,5.27,0,0,0-.5-2.71c.42-1-.62-1.63-.67-2.7C288.85,549.4,291,548.31,293,549.64Z" transform="translate(-121.81 -147.24)"/><path class="cls-1" d="M410.17,548.6c6.35,0,12.71-.21,19,.06,5.9.25,10.86,2.46,13.51,8.28,1.79,3.95,1.07,7.77-.48,11.54a24.57,24.57,0,0,1-6,8.44c-1.34,1.29-1.35,2.33-.26,3.71,4.67,5.9,9.13,12,14.27,17.48a17.58,17.58,0,0,0,8.72,5.4,14.15,14.15,0,0,1-15.3-4.92c-4.22-5.19-8.19-10.57-12.06-16-1.12-1.59-2.32-2.51-4.36-2.39a59.32,59.32,0,0,1-6.11,0c-1.59-.07-2.3.5-2.27,2.2.08,5.76-.07,11.53.54,17.28a5.09,5.09,0,0,0,2.36,4.06c-3.37.29-6.69,0-10.6.4,2.6-3.29,2.19-6.66,2.26-9.88.27-13.57.35-27.15,0-40.72C413.36,551.16,412.67,549.33,410.17,548.6Zm8.72,15.55h0c0,3.64.05,7.28,0,10.92a2.68,2.68,0,0,0,2.18,2.95c2.4.73,4.86.55,7.31.61,4,.09,6.69-1.89,8.24-5.5a19.77,19.77,0,0,0,0-15.71,11.25,11.25,0,0,0-8.86-7.09,19.87,19.87,0,0,0-6.3,0c-2.18.27-2.54.63-2.56,2.91C418.87,556.86,418.89,560.5,418.89,564.15Z" transform="translate(-121.81 -147.24)"/><path class="cls-1" d="M328.83,338.79c-.37-3.29.45-6.19.56-9.11.07-1.75.24-3.54.4-5.31.06-.75.34-1.39,1.2-1.32s.68.82.72,1.39a15,15,0,0,0,7,12.3c4.47,2.88,9.27,3.31,14.11.61,4.19-2.34,5.44-7.19,4.61-12-.77-4.46-3.67-7.25-7.63-9.13-3.72-1.76-7.74-2.84-11.35-4.83-8-4.42-9.95-9.66-9-17.09a14.24,14.24,0,0,1,13.11-12.14c4.18-.27,8.36-.12,12.21,1.65,1.74.79,2.41-.64,4-1.35.53,4.93,1.4,9.5,1,14.78-1.61-1.92-1.95-3.84-2.87-5.44-3.84-6.68-8.68-8.81-16.41-6.94a7,7,0,0,0-5,5c-1.93,6.95-.39,11.87,6.43,14.68,3.43,1.42,7,2.59,10.46,3.86,5,1.8,8.87,4.9,10.09,10.16,1.46,6.32.93,12.61-3.61,17.68-4.18,4.67-9.66,6.28-15.86,5.17a22.14,22.14,0,0,1-8.33-3.61c-2.47-1.65-2.48-1.64-4.64.34A7.82,7.82,0,0,1,328.83,338.79Z" transform="translate(-121.81 -147.24)"/><path class="cls-1" d="M293.57,283v10.18c0,.68,0,1.36,0,2,0,1.2-.65,2.39-1.72,2.44s-1.28-1.25-1.46-2.32a30.56,30.56,0,0,1-.37-5.57c.15-9-.19-18-.48-26.94,0-.34-.07-.68-.06-1,0-1.37-.36-1.88-2-1.71-5.46.56-10.94,1.12-16.45,1.18-2.49,0-2.49,0-2.52-2.44,0-1.19,0-2.38,0-3.57,0-2.77.22-2.94,2.87-2.51,5,.8,10.09.82,15.14,1.25,2.51.21,2.61,0,2.46-2.48-.29-4.81-.75-9.61-1-14.42-.16-2.91-.05-2.91,2.87-2.92,5.3,0,5.39,0,4.63,5.3-.57,4-.31,8.1-.88,12.14-.34,2.37-.09,2.55,2.26,2.39,5.39-.36,10.81-.44,16.16-1.28,1.47-.23,2.06.09,2,1.61-.06,1.86,0,3.73,0,5.6,0,.95-.41,1.39-1.38,1.36a53.65,53.65,0,0,1-6.6-.22c-3.86-.61-7.79-.28-11.62-1-.95-.19-1.22.3-1.3,1.07a6.54,6.54,0,0,0,0,.77C294.08,269,293.22,276,293.57,283Z" transform="translate(-121.81 -147.24)"/><path class="cls-1" d="M460.45,313.91c-3.77,1.2-7.62,1-11.38,1.28-6.24.47-12.48,1-18.74,1.2-8.45.27-16.91.73-25.33,1.48-4.15.36-8.31.13-12.43.55-4.29.45-8.6.5-12.9.8-2.52.18-2.54,0-2.54-2.38s.06-4.59,0-6.87c-.05-1.31.35-1.86,1.72-1.78,4.13.27,8.28.42,12.41.73,1,.07,2,.18,3,.18,6,0,12,.55,18,.7,8.53.2,17,1,25.57,1.51,7.24.41,14.46,1.3,21.69,2C459.86,313.33,460.23,313.29,460.45,313.91Z" transform="translate(-121.81 -147.24)"/><path class="cls-1" d="M357.18,156.51a38.93,38.93,0,0,1-1.75,5.67c-2.09,6.92-4.46,13.76-6.79,20.61q-4.59,13.52-9.3,27c-2.33,6.58-4.82,13.1-7.2,19.66-.72,2-1.31,4-2,5.95-.34,1-.78,1.63-2,.92a39.66,39.66,0,0,0-7.2-3c-1.25-.41-1.37-1-.86-2.08,2.81-5.76,5.34-11.64,8.24-17.36,1.93-3.82,3.64-7.77,5.49-11.64,2.88-6,5.75-12,8.67-18q4.09-8.4,8.29-16.76c1.63-3.24,3.37-6.43,5.06-9.63A2.44,2.44,0,0,1,357.18,156.51Z" transform="translate(-121.81 -147.24)"/><path class="cls-1" d="M121.81,313.16a108.4,108.4,0,0,1,16.08-2.09c5.73-.49,11.48-.67,17.2-1.27.59-.06,1.19-.06,1.78-.07q13.6-.25,27.14-1.47a43.22,43.22,0,0,1,4.83-.06c5,.09,10-.77,15-.67,1.71,0,2.2.56,2.1,2.2-.13,2.28-.1,4.58-.06,6.87,0,1.11-.2,1.82-1.51,1.73-3.13-.2-6.27.2-9.39-.4a47.91,47.91,0,0,0-7.08-.44c-5.17-.22-10.33-.55-15.49-.79-7.6-.34-15.21-.6-22.81-1.22-3.87-.31-7.77-.56-11.65-.77a76.05,76.05,0,0,1-12.85-1.29A20.81,20.81,0,0,0,121.81,313.16Z" transform="translate(-121.81 -147.24)"/><path class="cls-1" d="M227.23,156.52c1.1,1.95,2.3,3.85,3.29,5.86,3.88,7.88,8,15.65,11.67,23.62,3.94,8.47,8.19,16.79,12.22,25.22,3,6.29,5.73,12.73,9,18.91,1,1.87.65,2.35-1.37,3.15a55.81,55.81,0,0,0-6.08,2.43c-1.16.61-2.1.68-2.61-1.05-2-6.62-4.52-13-6.86-19.53-1.86-5.13-3.78-10.28-5.59-15.41-2.29-6.49-4.43-13.05-6.66-19.57-2-6-3.81-12-6.1-17.9a39.44,39.44,0,0,1-1.3-5.56Z" transform="translate(-121.81 -147.24)"/><path class="cls-1" d="M291.7,228.15c-1.19,0-2.38-.07-3.56,0-1.38.1-1.7-.52-1.73-1.79-.1-4.93.47-9.81.8-14.71,0-.33.13-.67.12-1-.29-5.61.43-11.18.7-16.75.34-7.18.57-14.37,1.3-21.54.31-3.1.41-6.25.51-9.37.14-4.16.81-8.27.74-12.43a15.58,15.58,0,0,1,.44-2.75.67.67,0,0,1,.7-.59.68.68,0,0,1,.74.55,7.76,7.76,0,0,1,.44,2c-.11,3.24.57,6.4.73,9.62.3,6,.87,12,1.32,18a8.43,8.43,0,0,1,.06,1c-.18,5.69.5,11.35.69,17,.24,7.36.73,14.71,1.07,22.07.14,2.95.19,5.92.41,8.87.1,1.47-.49,2-1.91,1.88-1.19-.09-2.38,0-3.57,0Z" transform="translate(-121.81 -147.24)"/><path class="cls-1" d="M411.68,194c-1.72,2.15-3.39,4.35-5.18,6.44-6.3,7.32-12.69,14.56-19.09,21.79q-14.09,15.88-28.47,31.5c-1,1.09-1.66,3.14-3.13,3-1.13-.13-2.09-1.82-3.12-2.82s-2.28-2.29-3.45-3.4c-.88-.84-.77-1.39.17-2.24,10.07-9.08,20-18.28,30.14-27.33,8.14-7.29,16.4-14.44,24.65-21.62,2.28-2,4.68-3.82,7-5.73Z" transform="translate(-121.81 -147.24)"/><path class="cls-1" d="M447.33,249.68c-11.53,6.13-23.16,11.78-34.79,17.41-6.53,3.16-13.18,6.06-19.64,9.34-5.94,3-12.11,5.56-18,8.6-2.17,1.11-2.49,1-3.25-1.34a52.9,52.9,0,0,0-2.53-6.31c-.55-1.15-.27-1.68.83-2.07,3.49-1.25,7-2.54,10.46-3.77,9.46-3.36,18.92-6.75,28.41-10,7.85-2.72,15.69-5.46,23.6-8q6.45-2.1,12.94-4.13C446,249.14,446.72,248.7,447.33,249.68Z" transform="translate(-121.81 -147.24)"/><path class="cls-1" d="M134.71,247.6c1.86.19,3.25,1,4.75,1.5,8.26,2.61,16.59,5,24.74,8,8,2.89,16.05,5.62,24,8.54,8.32,3.05,16.68,5.95,25.05,8.87,1.13.4,1.61.93,1,2a58.78,58.78,0,0,0-3.27,7.4c-.37,1-.68,1.27-1.84.72-8.51-4.07-17-8.18-25.56-12.16-8.87-4.12-17.63-8.46-26.42-12.72-6.31-3-12.58-6.15-18.76-9.45C137.23,249.69,135.65,249.23,134.71,247.6Z" transform="translate(-121.81 -147.24)"/><path class="cls-1" d="M172.51,193.34c2.29,1.81,4.38,3.34,6.33,5,9.25,8.08,18.58,16.07,27.62,24.4q10,9.21,20.22,18.18c2.36,2.07,4.6,4.27,6.91,6.39,1.67,1.54,1.7,1.81,0,3.13a29,29,0,0,0-4.64,4.69c-1,1.22-1.77,1.22-2.85,0-6.29-7-12.72-13.87-18.93-20.93-8.39-9.54-17-18.88-25.21-28.58-3-3.55-6.13-7-9-10.68A1.78,1.78,0,0,1,172.51,193.34Z" transform="translate(-121.81 -147.24)"/><path class="cls-1" d="M447.84,378.68a91.6,91.6,0,0,1-11.43-3.3c-7.51-2.54-15.07-4.93-22.53-7.63-11.21-4.05-22.54-7.77-33.7-12-3.2-1.21-6.43-2.44-9.75-3.38-1.2-.35-1.82-.89-1.14-2.38,1-2.13,1.59-4.42,2.47-6.6.52-1.29,1.27-1.93,2.9-1.13,7.34,3.61,14.73,7.11,22.12,10.61s14.84,6.91,22.21,10.47c5,2.41,9.93,5,14.88,7.52,3.91,2,7.82,4,11.72,6C446.38,377.27,447.37,377.45,447.84,378.68Z" transform="translate(-121.81 -147.24)"/><path class="cls-1" d="M290.7,483.52c-.59-5.61-.93-10.75-1.36-15.87-.51-6-.7-12-1.3-18-.39-3.95-.41-7.94-.55-11.91-.27-7.62-.94-15.21-1.25-22.83-.19-4.79,0-9.64-.69-14.42-.13-.9.31-1.23,1.15-1.22,2.89,0,5.77.07,8.66.05,1.1,0,1.33.66,1.17,1.48-.77,4,0,8.13-.8,12.15a4.32,4.32,0,0,0-.09,1c.28,5.86-.44,11.69-.67,17.52-.27,6.84-.47,13.69-1.25,20.52-.4,3.51-.49,7.08-.62,10.63-.24,6.6-1.31,13.12-1.73,19.7C291.35,482.57,291.14,482.77,290.7,483.52Z" transform="translate(-121.81 -147.24)"/><path class="cls-1" d="M226.47,468.91a19.91,19.91,0,0,1,1.49-6.73c2.07-5.68,3.79-11.48,5.8-17.18,3.19-9.05,6.25-18.15,9.45-27.2,3-8.39,6.06-16.73,9.1-25.1.8-2.22.76-2.16,2.88-1.17s4.34,1.9,6.55,2.72c1.09.41,1.32,1,.8,1.92-1.89,3.3-3.08,6.93-4.89,10.28-1.91,3.55-3.39,7.33-5.17,10.95-3.2,6.51-6.19,13.11-9.38,19.62-5.11,10.45-10.32,20.85-15.48,31.27A1,1,0,0,1,226.47,468.91Z" transform="translate(-121.81 -147.24)"/><path class="cls-1" d="M171.32,432.46c2.29-2.88,4.45-5.88,6.91-8.6,6.3-7,12.43-14.11,18.7-21.11,8.59-9.58,17.14-19.19,25.81-28.7.91-1,1.78-2,2.69-3.05.66-.74,1.32-.94,2.15-.15,2.09,2,3.67,4.44,6,6.24.71.56-.06,1.07-.44,1.44-1.81,1.79-3.62,3.58-5.5,5.29-4,3.63-8.13,7.16-12.13,10.82-7.55,6.92-15.28,13.65-22.91,20.48-6.25,5.59-12.66,11-19.06,16.38-.57.48-1.16.94-1.74,1.4Z" transform="translate(-121.81 -147.24)"/><path class="cls-1" d="M134.81,377.65c1.41-1.44,3.3-2.07,5-2.95,9.17-4.81,18.47-9.4,27.84-13.84,9.91-4.69,19.73-9.56,29.64-14.26,3.72-1.77,7.55-3.32,11.17-5.29,1-.55,1.64-.59,2.06.73a48.85,48.85,0,0,0,3.08,7.5c.47.91.32,1.16-.66,1.58-4.65,2-9.48,3.49-14.19,5.3s-9.83,3.46-14.75,5.18q-14.78,5.14-29.55,10.3c-6,2.13-12.19,4-18.34,5.79C135.68,377.81,135.3,378,134.81,377.65Z" transform="translate(-121.81 -147.24)"/><path class="cls-1" d="M355.18,468.68c-1.9-1.67-2.52-3.94-3.56-5.89-2.5-4.67-4.78-9.46-7.13-14.21-3.2-6.49-6.45-13-9.57-19.49-3.43-7.19-6.73-14.45-10.12-21.67-1.71-3.66-3.44-7.32-5.24-10.94-.58-1.17-.25-1.55.86-2a53.48,53.48,0,0,0,7.25-3.05c.92-.52,1.61-.21,2,.83,1.74,5.18,3.82,10.25,5.55,15.43,1.4,4.21,2.89,8.4,4.37,12.58q3.74,10.57,7.41,21.19c2.12,6.16,4.28,12.31,6.35,18.48.75,2.24,1.3,4.54,2,6.8C355.45,467.32,355.82,467.84,355.18,468.68Z" transform="translate(-121.81 -147.24)"/><path class="cls-1" d="M410.47,433.16a63.53,63.53,0,0,1-8.45-6.69c-6.48-5.7-13-11.36-19.42-17.12-8.06-7.23-16.2-14.37-24.14-21.73-3-2.76-6-5.47-9.09-8.12-1.05-.91-1.25-1.53-.11-2.56,1.82-1.64,3.55-3.4,5.22-5.21.91-1,1.61-1.06,2.44,0,2.12,2.76,4.7,5.1,7,7.67q11,12.16,21.9,24.36c5.47,6.12,10.93,12.25,16.32,18.44,2.83,3.25,5.5,6.63,8.24,10A.73.73,0,0,1,410.47,433.16Z" transform="translate(-121.81 -147.24)"/><path class="cls-1" d="M180.49,595.9c.92,2.29-.06,4.32-.44,6.39-.12.64-.86,1-1.55,1.19A46.21,46.21,0,0,1,160.66,605c-5.46-.61-10.79-1.88-15.6-4.85-9.91-6.13-14.19-17.89-12.64-28.25,1.09-7.28,4.17-13.5,9.93-18.25a27.75,27.75,0,0,1,12.86-5.58c7.48-1.41,14.86-.37,22.22.88,1.39.24,3.2-.27,4.11.86s-.13,2.77-.06,4.19c.08,1.61-.69,3.08-.57,4.71-.27-.1-.51-.12-.54-.21-1.19-3.92-4-6.08-7.75-7.28-7.7-2.44-15.38-2.46-22.84.62-5.48,2.27-8.87,6.79-10.34,12.42-2,7.52-2,15.08,1.39,22.33,4.73,10,12.78,15.16,23.75,15.84a34,34,0,0,0,4.83-.18C174,601.87,178.24,600.73,180.49,595.9Z" transform="translate(-121.81 -147.24)"/><path class="cls-1" d="M238.74,283.1c3.4,0,6.79,0,10.19,0,.72,0,1.64-.2,1.72,1,.09,1.35-.93,1.24-1.75,1.18-5.54-.44-6,.85-5.82,6.12.11,3.31,0,6.62,0,9.93,0,3.14-.44,6.28-.31,9.38.33,8.06.24,16.11.38,24.16,0,2.33.67,2.9,3.12,2.94a12,12,0,0,1,3.53.31c.53.16.93.33,1,1a1.21,1.21,0,0,1-.85,1.37,7,7,0,0,1-3.52.2,61,61,0,0,0-14.67,0,27.92,27.92,0,0,1-3.3.07c-1,0-1.62-.45-1.58-1.52s.75-1.4,1.71-1.4c1.28,0,2.55,0,3.82,0,2.31,0,3.36-1.06,3.54-3.38,0-.25,0-.51,0-.76q0-21.9,0-43.79c0-3.2-1.26-4.46-4.43-4.55-.93,0-1.87.06-2.8,0s-2.32.53-2.28-1.15c0-1.51,1.36-1,2.17-1,3.39-.06,6.79,0,10.18,0Z" transform="translate(-121.81 -147.24)"/><path class="cls-1" d="M391.16,555.69c-.82-4-3.48-4.68-6.56-4.74s-5.94-.06-8.9-.19c-1.49-.07-1.92.56-1.91,1.94,0,6.28.06,12.56,0,18.83,0,1.46.62,2,2,2,4.24,0,8.47-.23,12.7-.47.84,0,1.33-.69,2.38-.95-.26,2.38-.51,4.64-.75,6.9-1-2.78-3.32-3.27-5.85-3.39-2.87-.13-5.75-.26-8.63-.22-1.29,0-1.8.51-1.79,1.81.05,6.71,0,13.41.11,20.11.05,2.6,1.19,3.83,3.76,4.36a28,28,0,0,0,11.36-.09,5.24,5.24,0,0,0,3.95-3.81c.69,1.46.31,2.45.32,3.4,0,2.27-.6,2.94-2.79,2.94-5.43,0-10.86-.12-16.29-.17-2.71,0-5.41,0-8.58,0,2.29-2.66,2.39-5.52,2.45-8.35.3-13.65.15-27.31.07-41,0-2.56-.34-5.16-4.06-5.76,2.06-.76,3.63-.19,5.19-.2,6.19,0,12.38,0,18.58,0a12.33,12.33,0,0,0,2.76-.34c1-.24,1.58.09,1.34,1.36C391.64,551.48,391.47,553.34,391.16,555.69Z" transform="translate(-121.81 -147.24)"/><path class="cls-1" d="M223.05,572.05a9.38,9.38,0,0,1-.1,4c-.17,1.22-.24,2.46-.4,4.34-.54-3.26-2.22-4.41-4.8-4.68-3.3-.35-6.61-.24-9.91-.3-1.09,0-1.47.52-1.45,1.59.13,6.7-.52,13.4,0,20.1.22,2.79,1.33,4.16,4.11,4.64a31.55,31.55,0,0,0,11.13-.21c1.61-.3,2.35-1.85,4-2.31a7.73,7.73,0,0,1-.23,3.07c-.22,1.41-.83,1.86-2.17,1.84-5.34-.1-10.69-.15-16-.19-2.87,0-5.75,0-9.2,0,2.09-2,2.22-4,2.34-6.13.77-13.57.36-27.15.4-40.72,0-1-.25-2-.34-3-.33-3.74-.32-3.74-3.39-5.39,1.63-.53,3.22-.07,4.79-.07,6.88,0,13.75,0,20.63,0,2.09,0,2.17,0,1.54,2.11a7.42,7.42,0,0,0-.2,1.73c0,.51,0,1,0,1.54-.24,0-.5,0-.54-.05-1.45-2.6-3.92-3-6.53-3-2.88,0-5.76-.09-8.64-.15-1.18,0-1.64.47-1.63,1.67q0,9.69,0,19.36c0,.85.15,1.65,1.13,1.66,4.82.07,9.65.26,14.4-.86A6.65,6.65,0,0,0,223.05,572.05Z" transform="translate(-121.81 -147.24)"/><path class="cls-1" d="M323.05,473a1.7,1.7,0,0,1-.43-1.64c.33-3.29-1-5.86-3.19-8.22-2.89-3.1-3.62-7-3.3-11.06.44-5.67-.06-11.09-3.68-15.83-4.8-6.3-6-13.25-4.37-21,1.08-5,.67-10-3.53-13.85a4.11,4.11,0,0,1-1.12-1.68c-.31-.82-.08-1.31.88-1.31a26.91,26.91,0,0,0,7.46-1.35,2.61,2.61,0,0,1,3.5,1.61c2.24,4.92,3,10.08,1.21,15.24a29.73,29.73,0,0,0-1,15.72,16.08,16.08,0,0,0,2.17,4.78c3.44,6,4.52,12.19,2.26,19-1.12,3.36.25,6.65,1.9,9.67S324.93,469.2,323.05,473Z" transform="translate(-121.81 -147.24)"/><path class="cls-1" d="M450.36,345.08c-1.59.46-2.58-.63-3.79-.85a9.26,9.26,0,0,0-5.65.64c-4,1.88-7.93,1.08-11.5-.73-5.82-2.94-11.62-4.25-18.09-2.5-7.28,1.95-13.83-.22-19.75-4.48a14.4,14.4,0,0,0-10.21-3c-1.75.19-3.46.78-5.19,1.14-1.53.32-1.78.05-1.48-1.51l1.38-7.2a2.42,2.42,0,0,1,2.7-2.26,21.54,21.54,0,0,1,16,5.67,21.64,21.64,0,0,0,15.8,5.75c3.71-.14,7.44-.57,11.15.29a18.84,18.84,0,0,1,8.56,4.18,10.31,10.31,0,0,0,6.75,2.54c2.37.08,4.75.07,7.12-.05S448.39,343.65,450.36,345.08Z" transform="translate(-121.81 -147.24)"/><path class="cls-1" d="M131.72,345.28c.34-.21.47-.36.58-.35,4.17.56,7.46-1,10.54-3.79,2.23-2,5.3-2.54,8.33-2.49,4.31.09,8.59.11,12.78-1.26a15.79,15.79,0,0,0,4.69-2.41c6.45-4.9,13.52-6.57,21.45-4.46a12.85,12.85,0,0,0,11.76-2.15c1.26-1,2.63-1.83,4-2.77a2.34,2.34,0,0,1,1,2.19,40,40,0,0,0,1.21,5.95c.61,2.76.46,3.19-2.11,4.18a23.36,23.36,0,0,1-15.91.62c-7.4-2.42-14.28-1.78-20.91,2.27-4.25,2.59-9,2.94-13.69,2.15-3.53-.59-7-1.22-10.52-.21a14.36,14.36,0,0,0-3.83,1.88A9,9,0,0,1,131.72,345.28Z" transform="translate(-121.81 -147.24)"/><path class="cls-1" d="M260.46,471.51c1.07-3.55.46-6.83-.63-10.21s-.11-6.86,1.46-10c2.53-5.15,4.32-10.44,2.6-16.23-2.11-7.08-.65-13.53,3.17-19.62.77-1.21,1.59-2.4,2.33-3.62a12.5,12.5,0,0,0,1.08-10.75c-.4-1.25-1.52-2.73-.56-3.79s2.32.26,3.53.39c1.76.2,3.46.73,5.25.81a2.38,2.38,0,0,1,2.54,2.78c-.17,5.46-1.5,10.56-5.13,14.73a28.47,28.47,0,0,0-6.76,13.34,13.77,13.77,0,0,0-.07,5.31,26.64,26.64,0,0,1-.93,12.76,11.79,11.79,0,0,1-2.58,4.34,13.92,13.92,0,0,0-3.21,12.95C263.14,467.31,262.13,469.51,260.46,471.51Z" transform="translate(-121.81 -147.24)"/><path class="cls-1" d="M322.74,154.88c.51,1.14-.14,1.88-.34,2.64a11.37,11.37,0,0,0,0,6.23,16.62,16.62,0,0,1-1.31,13.42c-3.06,5.43-3.15,11.23-1.94,17.23,1.47,7.27-.23,13.84-4.73,19.8a12.11,12.11,0,0,0-1.86,11.93,4.68,4.68,0,0,1,.18.48c1.15,4.2.91,4.43-3.37,3.38-1.47-.35-3-.58-4.47-.85-2.72-.49-3.27-1.32-3.12-4a24.77,24.77,0,0,1,6.63-15.75,19.66,19.66,0,0,0,5-13,54.45,54.45,0,0,0-.34-7.1c-.36-3.43.7-6.68,2-9.82a19.55,19.55,0,0,1,3.47-5.55,9.49,9.49,0,0,0,2-5.38c.33-2.71-.12-5.42,0-8.13A8.22,8.22,0,0,1,322.74,154.88Z" transform="translate(-121.81 -147.24)"/><path class="cls-1" d="M132.84,282.5c1.64-.1,3.06.68,4.67.8,2.55.2,4.8-.86,7.19-1.26,3.6-.6,6.82.38,9.94,2a22.48,22.48,0,0,0,16.63,2.05,22.32,22.32,0,0,1,16.43,2.13c1.87,1,3.57,2.26,5.39,3.33a12.46,12.46,0,0,0,10.48,1.35c1.22-.39,2.47-.56,3.69-.86,1-.24,1.2.25,1,1.14-.62,2.88-1.27,5.76-1.78,8.66-.2,1.15-.84,1.27-1.76,1.33-6.06.42-11.68-.94-16.15-5.11-4.3-4-9.38-5.83-15-6.56a6.59,6.59,0,0,0-3,.19c-4.66,1.58-9,.16-13.29-1.47a21.62,21.62,0,0,1-5.2-3.15,13.19,13.19,0,0,0-11.25-2.23C137.63,285.52,135.22,284.23,132.84,282.5Z" transform="translate(-121.81 -147.24)"/><path class="cls-1" d="M450.14,282.1c-.76.7-1.63.38-2.45.49-2,.28-4.07.46-5.56,2.08-3.1,3.36-7,4.54-11.45,4.21a33.62,33.62,0,0,0-10.09.72,17.1,17.1,0,0,0-6.34,3c-4.91,3.56-10.25,5.67-16.43,5.36a24.46,24.46,0,0,1-5.48-.94c-4.66-1.35-8.64,0-12.3,2.81-.74.57-1.46,1.15-2.22,1.69-1,.71-1.55.29-1.76-.8q-.76-4-1.52-8a2.09,2.09,0,0,1,1.41-2.56,20.7,20.7,0,0,1,12.26-2.32c2.81.37,5.51,1.48,8.28,2.18A19.57,19.57,0,0,0,411.18,288c2.75-1.52,5.55-3.07,8.58-3.52s6.31-.77,9.48.45c4.14,1.59,8.19.65,11.79-1.68C444,281.37,447,281.31,450.14,282.1Z" transform="translate(-121.81 -147.24)"/><path class="cls-1" d="M381.3,448.41c-.35-.67-.73-1.32-1-2a9.24,9.24,0,0,0-5.08-5,13.06,13.06,0,0,1-6.56-6.42c-1.59-3.07-2.43-6.46-4.3-9.4a18.23,18.23,0,0,0-6.7-6.75c-4.43-2.35-7.46-6.14-9.82-10.34-1.34-2.38-1.79-5.26-2.28-8-.75-4.28-2.74-7.76-6.74-9.84a8.75,8.75,0,0,1-3.81-2.83c2.73-2.06,5.84-3.61,8.39-5.91.61-.54,1.07-.19,1.53.25,4.48,4.24,7.81,9.09,8.2,15.51a23.68,23.68,0,0,0,9.66,18.38,21.08,21.08,0,0,1,8.37,15.61c.3,3.59,2.65,6.33,5.51,8.46S381.36,444.67,381.3,448.41Z" transform="translate(-121.81 -147.24)"/><path class="cls-1" d="M202,179.54c1.16,4,4.22,5.54,7.21,7.38,3.37,2.07,5.3,5.31,6.52,9.24a21.12,21.12,0,0,0,8.32,11.78c3.25,2.15,6.5,4.24,8.77,7.57a24.17,24.17,0,0,1,4.52,11c.53,4.91,3,8.2,7.19,10.62,4.5,2.6,3.68,2.63.07,4.78a37.5,37.5,0,0,0-4.35,3.07c-1.09.87-1.78.69-2.8-.22a21.78,21.78,0,0,1-7.57-14.73,29.72,29.72,0,0,0-3.51-12c-1.68-3-4.31-4.93-6.85-7a20.31,20.31,0,0,1-7.45-13.4,14.86,14.86,0,0,0-6.62-10.87c-2-1.39-3-3.35-4-5.38C201.26,181,201.25,180.44,202,179.54Z" transform="translate(-121.81 -147.24)"/><path class="cls-1" d="M259.73,155.09c.22,1.31.53,2.52.62,3.75a6.75,6.75,0,0,0,2,4.26c3.41,3.59,4.6,7.82,4.2,12.74a24.06,24.06,0,0,0,5.16,17.51,17.12,17.12,0,0,1,3.46,9.37,34.94,34.94,0,0,1-.68,10.58,12.65,12.65,0,0,0,2.94,11.8c.9,1,2.24,2.19,1.86,3.39s-2.23.85-3.41,1.07c-1.66.3-3.31.64-5,1-2.08.42-2.45.19-3.32-1.69-2.76-5.93-2.52-11.91-.57-18a21.22,21.22,0,0,0-2.3-18.66c-3-4.73-3.33-9.86-2.44-15.09.62-3.64,1.07-7.14-.18-10.72-.68-1.94-2.18-3.4-2.8-5.38A7.68,7.68,0,0,1,259.73,155.09Z" transform="translate(-121.81 -147.24)"/><path class="cls-1" d="M201.25,448.63c3.17-2.65,4-6.08,4.31-10.09.29-3.78,2.62-6.89,5.54-9.35,4.61-3.86,7.75-8.46,8.63-14.62,1.05-7.25,5-12.77,11.14-16.76,2.71-1.75,5.22-3.71,6.6-6.82a10.19,10.19,0,0,0,1.07-4.11,9.8,9.8,0,0,1,.18-2c.6-2.83,1-3,3.29-1.07,1.78,1.44,3.79,2.53,5.68,3.79a1.63,1.63,0,0,1,.79,2.11,20.56,20.56,0,0,1-9.14,12c-3.22,2-6.81,3.39-9.34,6.41a24.12,24.12,0,0,0-5.45,10,20.55,20.55,0,0,1-10.22,13.58,13.88,13.88,0,0,0-7.14,9.62C206.41,444.88,204.2,447,201.25,448.63Z" transform="translate(-121.81 -147.24)"/><path class="cls-1" d="M365.53,270.3c-1.95-2.82-3.75-5.46-5.6-8.08-.42-.6-.73-1-.14-1.76a21.06,21.06,0,0,1,13.11-7.91c3.88-.68,7.92-.49,11.57-2.46a24.08,24.08,0,0,0,8.61-6.91,23.71,23.71,0,0,1,12.48-8.65c1.17-.37,2.36-.1,3.53-.34a15.16,15.16,0,0,0,9.68-6.79c1.46-2.14,3.14-3.08,6-3.42,0,.09,0,.23,0,.25-3.28,1.94-5.21,5-7.14,8.19-1.77,3-4.94,4.41-8.24,5.56-5.27,1.84-9.93,4.52-12.9,9.64-4.14,7.12-10.62,10.86-18.68,12.13a13.22,13.22,0,0,0-10,7.38C367.24,268.23,366.86,269.52,365.53,270.3Z" transform="translate(-121.81 -147.24)"/><path class="cls-1" d="M380.31,179.32c.35.67.35,1.06.09,1.27-2.64,2.15-2.92,5.24-3.23,8.26-.41,4-2.53,6.89-5.41,9.43-4.48,3.95-8.06,8.4-8.59,14.71a20,20,0,0,1-2.32,7.15c-2.42,4.87-6.38,8.22-10.86,11.06a11.31,11.31,0,0,0-5.49,9.45c-.07,1.29-.48,2.48-.65,3.73-.14,1-.8,1-1.47.52a76.88,76.88,0,0,0-7.13-4.83c-1.4-.83-1.14-2.14-.61-3.37a25.69,25.69,0,0,1,7.56-10c1.92-1.57,4.31-2.27,6.33-3.67a23.18,23.18,0,0,0,9.85-13.89A20.8,20.8,0,0,1,369,195.59a12.21,12.21,0,0,0,6.13-7.41c.76-2.46,1.3-5,3.11-7A6,6,0,0,1,380.31,179.32Z" transform="translate(-121.81 -147.24)"/><path class="cls-1" d="M425.74,403c-.07,0-.18.12-.19.1-2.78-2.71-6.35-3.15-10-3.66-3.89-.56-6.74-3-9.23-5.87-3.3-3.78-7.05-6.67-12.18-7.61s-10.31-2.49-14.36-6.35c-2.3-2.19-3.9-4.86-5.8-7.33-2.42-3.14-5.35-5.29-9.5-5.62-1.34-.11-3.32.16-3.94-1.14s1-2.53,1.82-3.6c1-1.36,1.79-2.85,2.7-4.26a1.82,1.82,0,0,1,2.51-.86,20.8,20.8,0,0,1,12.5,10.46,29.1,29.1,0,0,0,8,9.93c2.93,2.29,6.33,3.15,9.69,4.19a20.05,20.05,0,0,1,11.05,8.81c2.53,4,5.62,6.84,10.32,7.87A8.85,8.85,0,0,1,425.74,403Z" transform="translate(-121.81 -147.24)"/><path class="cls-1" d="M157.47,224.61c3.14,3,7.1,3.13,11,3.78A12.32,12.32,0,0,1,176,233.3a23,23,0,0,0,15.3,9c6.83,1,12,4.62,15.74,10.39,2.09,3.21,4.51,6.11,8.26,7.57,1.78.69,3.67.46,5.48.88,2.06.49,2.4,1,1.11,2.59a58.91,58.91,0,0,0-4,5.88,2.13,2.13,0,0,1-2.93,1.07,22.25,22.25,0,0,1-11.47-9.13c-2-2.94-3.22-6.29-5.86-8.85a24.58,24.58,0,0,0-11.4-6.2,19.54,19.54,0,0,1-12.36-9.4,15.31,15.31,0,0,0-9.94-7.57C161.29,228.88,158.59,227.8,157.47,224.61Z" transform="translate(-121.81 -147.24)"/><path class="cls-1" d="M155.69,404c1-.81,2.23-.75,3.25-1.3a11.37,11.37,0,0,0,4.94-5.51c1.81-4,5.15-6.21,9.11-7.54,5.78-1.94,10.48-5,13.81-10.37a22.54,22.54,0,0,1,16.73-11.11c5.19-.7,9.23-3.1,11.53-8,0-.07,0-.17.09-.23,2.21-3,2.07-3.17,4.06,0,1.06,1.72,2.29,3.34,3.51,5a1.85,1.85,0,0,1-.15,2.7,22.31,22.31,0,0,1-15.7,7.73c-7,.58-12.9,3.25-17.17,9a20.93,20.93,0,0,1-14,8.68c-4.72.69-8.47,2.59-11.12,6.61-1.68,2.54-4.42,3.52-7.06,4.6A1.73,1.73,0,0,1,155.69,404Z" transform="translate(-121.81 -147.24)"/><path class="cls-1" d="M351.6,554.38c-2.1-3.08-5.34-3-8.3-3.19-3.12-.24-6.27-.05-9.41-.17-1.56-.06-2.09.5-2.07,2,.06,5.26,0,10.52,0,15.78,0,7.38,0,14.76,0,22.13,0,2.81.28,5.59.47,8.38a4.49,4.49,0,0,0,3,4.24c-2.06.79-3.9.08-5.7.19s-3.54,0-5.63,0c2.17-2.55,2.25-5.44,2.26-8.33q.07-21,.11-42c0-2.4,0-2.41-2.37-2.4-3.47,0-6.95,0-10.43.08-2.56.06-5.07.4-6.95,2.47-1.31-2,.06-3.65.45-5.39.08-.39.84-.43,1.37-.33,6.65,1.26,13.36.59,20.05.71,5.93.1,11.87,0,17.81,0a15.52,15.52,0,0,0,3.78-.34c1.17-.3,2,0,1.85,1.53S351.68,552.86,351.6,554.38Z" transform="translate(-121.81 -147.24)"/><path class="cls-1" d="M452.42,531.89a5.12,5.12,0,0,1-2.53-1.87c-9.9-9.87-19.42-20.12-28.78-30.51-.68-.75-1.37-1.49-2.05-2.23a1,1,0,0,0-1.12-.37c-.51.18-.51.62-.51,1,0,1.27,0,2.55,0,3.82l.57,24.67c0,2,.35,3.86,2.21,5.22h-6.6c1.36-1.38,1.56-3.12,1.56-4.93q0-17.29.1-34.61a11.41,11.41,0,0,1,.28-4.12c1,.06,1.41.85,1.95,1.43l30.68,33.27c.29.31.58.63.88.92a1.11,1.11,0,0,0,1.38.26,1,1,0,0,0,.47-1.1c-.05-1.35-.13-2.71-.19-4.06-.27-5.85-.33-11.7-.37-17.56,0-3-.29-5.92-.36-8.89a5.21,5.21,0,0,0-1.81-3.72,17.77,17.77,0,0,1,5.75.05c-1.15,2-1,4.17-1,6.28-.06,11.19-.09,22.39-.15,33.59A7.79,7.79,0,0,1,452.42,531.89Z" transform="translate(-121.81 -147.24)"/><path class="cls-1" d="M217.91,531.76h-7.36c1.92-1,2-2.49,2-3.93,0-7.47-.15-14.94.17-22.4.2-4.66-.11-9.3-.06-13.95a6.11,6.11,0,0,1,.55-3.34c1,.15,1.47,1,2.06,1.6q14.94,16.13,29.84,32.29c.06.06.1.14.16.2.79.7,1.38,2.12,2.62,1.55.93-.41.42-1.7.4-2.57-.18-9.5-.44-19-.61-28.49,0-1.51-.79-2.73-1.4-4.15a16.52,16.52,0,0,1,5.39-.07c-1.37,1.95-1.18,4.06-1.19,6.13,0,11.45,0,22.91-.06,34.36,0,.89.46,2.18-.44,2.59-1.1.49-1.68-.86-2.35-1.51-10-9.84-19.67-20.09-29-30.65-.9-1-1.83-3-3.17-2.49s-.57,2.57-.55,3.92c.12,8.39.35,16.79.54,25.18C215.5,528.18,215.89,530.19,217.91,531.76Z" transform="translate(-121.81 -147.24)"/><path class="cls-1" d="M298.71,531.6a25.27,25.27,0,0,1-7,.07c-1.3-5.4-3.81-10.37-5.52-15.63a2,2,0,0,0-2.19-1.38c-3.65,0-7.29,0-10.94,0a1.76,1.76,0,0,0-1.92,1.31c-1.36,4.08-3.06,8.06-4,12.28a4.27,4.27,0,0,0,.57,3.4h-6.62c3-1.75,3.7-4.74,4.72-7.55q6.33-17.39,12.64-34.77c.17-.45.28-1,.74-1.23.83.1.89.8,1.08,1.3q6.66,17.69,13.63,35.24C295,527.28,296,529.94,298.71,531.6Zm-20-18.57c1.36,0,2.72,0,4.07,0s1.81-.7,1.43-1.92c-.45-1.44-1-2.87-1.5-4.29q-1.67-4.66-3.37-9.32c-.19-.54-.24-1.24-1-1.25s-.87.6-1.06,1.18c-1.46,4.52-3,9-4.41,13.53-.48,1.48-.09,2,1.55,2C275.85,513.08,277.3,513,278.74,513Z" transform="translate(-121.81 -147.24)"/><path class="cls-1" d="M386.07,487.78c2.84,7.35,5.62,14.41,8.29,21.52q3.3,8.76,6.9,17.41a14,14,0,0,0,4,5,14.32,14.32,0,0,1-1.46.17c-1.78,0-3.71.35-5.29-.23s-1-2.86-1.6-4.34c-1.45-3.76-3.19-7.43-4.28-11.33-.32-1.13-1.19-1.32-2.18-1.32-3.56,0-7.13,0-10.69,0a2.19,2.19,0,0,0-2.43,1.7c-1.11,3.55-2.34,7-3.46,10.59-.48,1.51-1,3.06.32,4.75h-6.46c3.24-2.64,4-6.45,5.34-10,2.9-7.85,5.63-15.76,8.73-23.54,1-2.58,1.88-5.24,2.76-7.89A5.83,5.83,0,0,1,386.07,487.78Zm-1.13,25.46v0c1.35,0,2.71.07,4.06,0,1.93-.13,2.28-.58,1.67-2.41-1.52-4.56-3.15-9.09-4.72-13.64-.2-.59-.36-1.13-1.14-1.07-.62,0-.85.42-1,.95-1.55,4.71-3.13,9.41-4.65,14.13-.41,1.26.22,2,1.48,2C382.06,513.29,383.5,513.24,384.94,513.24Z" transform="translate(-121.81 -147.24)"/><path class="cls-1" d="M166.74,493.73c-5.26,6.45-5.66,13.86-3.69,21.42,2.44,9.34,9.75,15,19.28,15.72a19,19,0,0,0,6.8-.53c2.39-.71,3.51-1.64,3.38-4.25-.17-3.3,0-6.62-.07-9.93-.05-1.74.06-3.61-2.1-5.1h7.71c-1.55,1.57-1.57,3.54-1.6,5.47-.06,3.74-.13,7.47,0,11.2a3,3,0,0,1-2.38,3.38c-9.68,3-19,2.51-27.7-3.14A18.34,18.34,0,0,1,159,517.86C156.12,509,157.72,501,163.85,494a3.75,3.75,0,0,1,1.76-1.41C166.37,492.58,166.69,493,166.74,493.73Z" transform="translate(-121.81 -147.24)"/><path class="cls-1" d="M302.24,492.85c.6-4.92.59-4.72,4.89-4.63,9.84.22,19.68.34,29.52-.12,1.14-.05,1.6.17,1.59,1.26a10.44,10.44,0,0,1-.29,3.2c-3-2.51-6.4-2.22-9.71-2.38-5.73-.28-5.75-.24-5.74,5.44,0,10,.06,20,.06,30,0,1.29.35,2.51.44,3.77.08,1.09.71,1.64,1.91,2.25H317a15,15,0,0,0,1.17-6.51c0-10.95,0-21.9.11-32.84,0-1.65-.48-2.3-2.16-2.21-2.8.14-5.6.13-8.4.2A6.37,6.37,0,0,0,302.24,492.85Z" transform="translate(-121.81 -147.24)"/><path class="cls-1" d="M349.41,488.43a43.6,43.6,0,0,1,7.07.09c-1.39,1.92-1.26,4-1.25,6.07,0,10.51,0,21,.09,31.55,0,2-.32,4.15,2,5.56h-7.79a12.46,12.46,0,0,0,1.21-6.28c0-10.35.06-20.7,0-31C350.77,492.45,350.93,490.46,349.41,488.43Z" transform="translate(-121.81 -147.24)"/><path class="cls-1" d="M137.17,488.53a42.06,42.06,0,0,1,7.41-.09c-1.72,2.26-1.53,4.77-1.56,7.15-.1,8.56-.14,17.13,0,25.69,0,2.44.32,4.89.35,7.34,0,1.3.81,2.14,1.68,3.15h-7.58c1.91-4.16,1.34-8.47,1.37-12.7.08-8.23,0-16.45,0-24.68C138.84,492.46,139,490.49,137.17,488.53Z" transform="translate(-121.81 -147.24)"/><path class="cls-1" d="M291.17,385.42c-.93-4.5-.84-8.93-1.07-13.3s-.87-8.44-.69-12.69a2.06,2.06,0,0,0-1.86-2.32c-1.42-.26-2.71-1-4.18-1.07a2.37,2.37,0,0,1-2.09-1.38c6.08-.2,8.37-4.38,10-9.77,1.4,2.73,2.16,5.15,3.65,7.16,1.62,2.18,4.42,1.76,6.71,3a15.66,15.66,0,0,1-5.56,1.88c-1.87.42-2.45,1.28-2.55,3.1-.46,7.85-1.06,15.69-1.61,23.53A2.79,2.79,0,0,1,291.17,385.42Z" transform="translate(-121.81 -147.24)"/><path class="cls-1" d="M330.11,358.56c-.14.87.22,14.06.38,14.7a20,20,0,0,1-3.92-2.3c-2.87-1.81-3.5-1.73-5.94.5-5.76,5.26-11.55,10.47-17.34,15.7a7,7,0,0,1-1,.52c.67-2.1,2.18-3.23,3.26-4.55,4-4.92,8.21-9.7,12.31-14.54,2.18-2.56,2.16-2.78.24-5.69-.74-1.11-1.42-2.26-2.31-3.68,2.85,0,4.74,2.06,7.25,1.92S327.53,359.33,330.11,358.56Z" transform="translate(-121.81 -147.24)"/><path class="cls-1" d="M281.72,388.13a6.45,6.45,0,0,1-3.08-1.94c-5.72-5.17-11.45-10.32-17.14-15.52a2.93,2.93,0,0,0-3.7-.53c-1.77.94-3.52,1.92-5.56,3.05.7-2.63,2.69-4.49,2.61-7.18s-1.78-4.62-2-7.37c4.47,2.82,8.86,3.52,13.44.38-.26,2.08-1.36,3.44-2.26,4.88a2.93,2.93,0,0,0,.25,3.91C270.05,374.47,275.76,381.17,281.72,388.13Z" transform="translate(-121.81 -147.24)"/><path class="cls-1" d="M439.06,621.18c-.6,2.52-.38,5-.43,7.38,0,1.87,0,3.74,0,5.6,0,.67,0,1.5-1,1.44-.76,0-.84-.73-.84-1.34,0-5.09,0-10.18,0-15.27,0-1.39.75-1.73,2-1.11a6,6,0,0,1,2.06,2.2c2.67,3.8,5.31,7.62,8,11.43.27.39.39,1.06,1.05.84s.53-.8.53-1.31c0-3.39,0-6.79,0-10.18,0-.51,0-1,0-1.52,0-.68,0-1.5,1-1.44s.67.85.68,1.39c0,2.12,0,4.24,0,6.36,0,2.63,0,5.26,0,7.89,0,.76.43,1.82-.79,2.12a1.94,1.94,0,0,1-2.28-1c-2.38-3.59-4.92-7.08-7.33-10.65A12.9,12.9,0,0,0,439.06,621.18Z" transform="translate(-121.81 -147.24)"/><path class="cls-1" d="M155.15,617.26a9.23,9.23,0,0,1,9.46,9.42c-.09,5.63-4.05,9.6-9.62,9.58a9.37,9.37,0,0,1-9.35-9.88C145.68,621.8,150,616.74,155.15,617.26Zm0,1.55c-4.14-.52-7.74,3.28-7.61,7.92.15,5.45,3.28,8,7.61,8,5.22,0,7.57-4.05,7.64-8C162.81,623,159.35,618.11,155.11,618.81Z" transform="translate(-121.81 -147.24)"/><path class="cls-1" d="M309.94,626.76c0-2.38.06-4.75,0-7.13-.05-1.46.33-2.24,2-2.14,2,.13,4.05.09,6.08.3,4.72.48,8.78,4.8,7.48,11.13a8.27,8.27,0,0,1-8,6.82c-1.94.11-3.9,0-5.85,0-1.18,0-1.67-.41-1.64-1.64C310,631.68,309.94,629.22,309.94,626.76Zm1.57-.24h0c0,.94,0,1.87,0,2.8.09,5.57-1,5,5.29,4.91,2.82,0,5.4-1.18,6.4-3.79a10.69,10.69,0,0,0-.44-8.41c-.12-.27-.52-.4-.75-.64-2.6-2.77-6-2.27-9.28-2.3-1,0-1.22.73-1.22,1.58C311.52,622.62,311.51,624.57,311.51,626.52Z" transform="translate(-121.81 -147.24)"/><path class="cls-1" d="M431.57,626.7c.17,6.26-4.67,9.58-9.53,9.57a9.46,9.46,0,0,1-9.36-9.64,9.84,9.84,0,0,1,9.55-9.49C427.46,617.22,432,621.81,431.57,626.7Zm-9.11-7.91c-4.45-.66-8.15,3.45-8,8.07.12,4.89,3.83,8,7.53,7.91,5.59-.16,7.86-3.4,8-8.19S426.19,618.28,422.46,618.79Z" transform="translate(-121.81 -147.24)"/><path class="cls-1" d="M181.45,635.38c-1.59.84-2.13-.35-2.69-1.22a63.15,63.15,0,0,1-3.25-5.42,2.32,2.32,0,0,0-2.16-1.45c-1,0-1.8.26-1.74,1.58.07,1.78,0,3.56,0,5.34,0,.68-.05,1.46-1,1.46s-.83-.88-.84-1.49c0-4.92,0-9.84,0-14.75,0-1.32.49-1.81,1.74-1.9a31.74,31.74,0,0,1,6.32.43,4.59,4.59,0,0,1,3.55,3.53c.28,2.37-.57,4.12-2.46,5.06s-2.07,1.63-.85,3.22C179.39,631.52,180.26,633.51,181.45,635.38Zm-9.93-12.92c-.41,3.6-.57,3.67,3.61,3.5a13.45,13.45,0,0,0,2-.29,3.26,3.26,0,0,0,2.58-2.46c.42-1.38-.34-2.47-1.21-3.37a4.11,4.11,0,0,0-3.06-.89C171.69,618.85,171.69,618.84,171.52,622.46Z" transform="translate(-121.81 -147.24)"/><path class="cls-1" d="M330.78,624.69c0-1.86,0-3.73,0-5.59,0-.58-.06-1.27.81-1.27s1,.62,1,1.22c.05,2.63.05,5.25.07,7.88,0,1,0,2,.06,3.05.19,2.95,2.06,4.81,4.78,4.8,2.94,0,4.83-1.83,4.95-5s.07-6.09.11-9.14a17.54,17.54,0,0,1,.06-1.78c.07-.52.29-1,.94-1s.81.51.81,1.05c0,2.2,0,4.41,0,6.61a25.55,25.55,0,0,1-.29,5.31,6.4,6.4,0,0,1-6.84,5.38,6.49,6.49,0,0,1-6.43-6.23c-.11-1.78,0-3.56,0-5.34Z" transform="translate(-121.81 -147.24)"/><path class="cls-1" d="M369.3,635.65c-1,0-.82-.6-.57-1.19.81-1.94,1.59-3.9,2.45-5.82,1.41-3.16,2.84-6.3,4.32-9.42.29-.63.44-1.52,1.49-1.48.89,0,1.09.75,1.35,1.34,2.13,4.92,4.25,9.85,6.3,14.81.21.5,1.11,1.25.14,1.72s-1.39-.25-1.69-1.05a6.21,6.21,0,0,1-.44-.9c-.37-2-1.68-2.52-3.52-2.41a24,24,0,0,1-4.32,0c-2.26-.28-3.53.73-4.18,2.76C370.39,634.72,370.22,635.48,369.3,635.65Zm7.35-5.94h2.29c1.34,0,2-.41,1.34-1.83-.87-2-1.69-4-2.53-6-.16-.38-.2-.83-.74-.91s-.9.37-1.09.85c-.56,1.41-1.1,2.84-1.67,4.25C372.78,629.69,372.77,629.69,376.65,629.71Z" transform="translate(-121.81 -147.24)"/><path class="cls-1" d="M209.1,626.34c0-2.37,0-4.74,0-7.11,0-.93.09-1.71,1.36-1.6,2.61.22,5.24-.36,7.86.07.6.1,1.66-.26,1.65.64,0,1.14-1.16.69-1.81.72-1.78.07-3.56.09-5.34,0-1.37-.07-1.93.33-2,1.83-.11,4.63-.17,4.63,4.45,4.63a1.74,1.74,0,0,1,.51,0c1.2.31,3.42-.79,3.41.81,0,1.39-2.29.53-3.55.7a14.71,14.71,0,0,1-3,0c-1.37-.11-1.69.54-1.77,1.79-.35,5.39-.38,5.39,5,5.39,1.19,0,2.38,0,3.56,0,.5,0,1.12,0,1.17.65s-.51.81-1,.81q-4.57,0-9.15,0c-1.19,0-1.29-.84-1.29-1.75Z" transform="translate(-121.81 -147.24)"/><path class="cls-1" d="M293.56,626.81c0-2.54,0-5.09,0-7.63,0-1,.25-1.65,1.39-1.64,2.8,0,5.6,0,8.4,0,.59,0,1.3.11,1.22.92-.06.65-.73.58-1.21.6-2.2.07-4.41.22-6.61.16-1.11,0-1.56.29-1.57,1.38,0,5.82-.66,4.8,4.23,4.89l3.31,0c.52,0,1.15.06,1.18.69,0,.8-.66.84-1.27.84-1.78,0-3.57.06-5.35,0-1.46-.06-2.19.39-2.16,2,.14,6.25-.61,5,4.84,5.13,1.44,0,2.89,0,4.33,0,.44,0,.88.19.91.69a.73.73,0,0,1-.81.77c-3.31,0-6.62,0-9.93,0-1,0-.89-.83-.89-1.5,0-2.46,0-4.92,0-7.38Z" transform="translate(-121.81 -147.24)"/><path class="cls-1" d="M166.74,493.73c-.05-.71-.37-1.15-1.13-1.17,3.27-3.33,7.54-4.23,11.89-5,5.36-.91,10.61-.06,15.82,1.13,1.12.25,2.66-.31,3.3.75s-.07,2.47-.1,3.73a3.65,3.65,0,0,1-.47,2.23c-2.87-4.93-7.71-5.87-12.75-6.36C177.18,488.47,171.56,489.71,166.74,493.73Z" transform="translate(-121.81 -147.24)"/><path class="cls-1" d="M231.1,617.28a5.46,5.46,0,0,1,3.35.73c.49.23,1.14.61.74,1.35s-.9.56-1.47.15a5.5,5.5,0,0,0-3.92-.67,2.86,2.86,0,0,0-2.87,2.39,3.26,3.26,0,0,0,1.8,3.8c1.57.79,3.33,1,4.91,1.88,2.16,1.19,2.58,3,2.36,5.12s-1.61,3.05-3.38,3.69a7.25,7.25,0,0,1-6.77-.72c-.41-.27-1.22-.58-.74-1.33s1.13-.58,1.74-.09a4.8,4.8,0,0,0,5.44.63,3.24,3.24,0,0,0,2-3.23,3.06,3.06,0,0,0-2.11-2.89c-1.15-.5-2.36-.89-3.55-1.32-2.72-1-4-2.68-3.71-5a5.54,5.54,0,0,1,5.11-4.48C230.36,617.26,230.7,617.28,231.1,617.28Z" transform="translate(-121.81 -147.24)"/><path class="cls-1" d="M241.42,624.75c0-1.87,0-3.73,0-5.59,0-.58-.05-1.3.81-1.3s.89.64.9,1.27c0,2.71,0,5.42,0,8.13a17.53,17.53,0,0,0,.19,3.54,4.56,4.56,0,0,0,4.51,4,4.66,4.66,0,0,0,5-3.67c.71-3.28.19-6.58.35-9.87,0-.84,0-1.69.06-2.54a.8.8,0,0,1,.75-.85.69.69,0,0,1,.8.76c-.14,4.38.56,8.76-.45,13.13-.74,3.15-3.68,4.65-6.73,4.48a6.29,6.29,0,0,1-6.15-5.88c-.14-1.86,0-3.73,0-5.59Z" transform="translate(-121.81 -147.24)"/><path class="cls-1" d="M349.43,626.74A9.19,9.19,0,0,1,362,617.8a4.84,4.84,0,0,1,1.35.66c.52.39,1.35.78.84,1.57s-1.11.28-1.73-.12a6.61,6.61,0,0,0-7.65-.09,8,8,0,0,0-3.5,8.42,7.34,7.34,0,0,0,11.73,5c.47-.35,1-1,1.53-.37.72.76-.16,1.22-.6,1.6-2.65,2.3-7.77,2.66-11.41-.57A8.25,8.25,0,0,1,349.43,626.74Z" transform="translate(-121.81 -147.24)"/><path class="cls-1" d="M131,626.69c0-2.45,0-4.91,0-7.36,0-.92.11-1.78,1.28-1.78,2.79,0,5.58,0,8.37.1.55,0,1.36,0,1.27.87s-.78.77-1.39.76c-1.95,0-3.91.13-5.84-.06-1.54-.16-2.19.21-2.17,1.83.1,5.73-.54,4.8,4.59,4.84.85,0,1.69,0,2.54,0,.53,0,1.39-.18,1.32.7s-.9.57-1.44.58c-1.61,0-3.22,0-4.83,0s-2.36.52-2.2,2.27a50.62,50.62,0,0,1,0,5.08c0,.52-.08,1.07-.77,1.06s-.76-.56-.76-1.08c0-2.63,0-5.25,0-7.88Z" transform="translate(-121.81 -147.24)"/><path class="cls-1" d="M273.13,627.31c0-2.12-.05-4.24,0-6.35,0-1.45-.57-2-2-1.88-1,.07-2,0-3,0-.41,0-.9,0-1-.58s.42-.68.83-.7a83.56,83.56,0,0,1,11.41-.11c.55,0,1.34,0,1.23.86-.07.62-.76.51-1.24.56h-.25c-4.32.26-4.32.26-4.33,4.56,0,3.21.05,6.43,0,9.65,0,.77.59,2.24-.8,2.18-1.22-.05-.79-1.47-.82-2.33C273.08,631.2,273.13,629.25,273.13,627.31Z" transform="translate(-121.81 -147.24)"/><path class="cls-1" d="M202.83,625.43c0,2.12.14,4.25,0,6.35a4.43,4.43,0,0,1-3.22,4.11,5,5,0,0,1-5.16-1,3.22,3.22,0,0,1-.89-1.2c-.14-.3-.31-.62,0-.9a1,1,0,0,1,1-.14c.55.17.7.71,1,1.09a2.76,2.76,0,0,0,3.21.88,2.86,2.86,0,0,0,2.17-2.54,31.93,31.93,0,0,0,.11-3.79c-.07-3,.09-6.09.17-9.14,0-.58-.05-1.3.81-1.3s.94.79.94,1.47c0,2,0,4.07,0,6.1Z" transform="translate(-121.81 -147.24)"/><path class="cls-1" d="M393.8,627.61c0-2.29,0-4.58,0-6.87,0-1.17-.45-1.71-1.66-1.65s-2.2,0-3.3-.05c-.41,0-.94,0-1-.55-.07-.74.56-.74,1.05-.75q5.71,0,11.43,0c.48,0,1.12,0,1.07.72,0,.52-.56.55-1,.56-1,0-2,.1-3.05,0-1.47-.11-1.91.57-1.89,2,0,3.9,0,7.8,0,11.7,0,.5,0,1,0,1.52,0,.68,0,1.5-1,1.41s-.64-.89-.65-1.42c0-2.2,0-4.4,0-6.61Z" transform="translate(-121.81 -147.24)"/><path class="cls-1" d="M405.66,626.79c0-2.54,0-5.09,0-7.63,0-.69,0-1.51.92-1.53s1,.8,1,1.49q0,7.64,0,15.26c0,.74-.12,1.38-1.09,1.33s-.82-.7-.82-1.29c0-2.55,0-5.09,0-7.63Z" transform="translate(-121.81 -147.24)"/><path class="cls-1" d="M261,626.55c0-2.44,0-4.89,0-7.33,0-.61,0-1.3.78-1.38,1-.1,1.05.7,1.05,1.38,0,5,.27,10.11-.16,15.16-.05.5,0,1.12-.66,1.18s-1-.53-1-1.16c0-2.62,0-5.23,0-7.85Z" transform="translate(-121.81 -147.24)"/><path class="cls-1" d="M293,549.64c-2-1.33-4.16-.24-6.32-.61.05,1.07,1.09,1.72.67,2.7-1.13-2.47-3.57-2.39-5.84-2.86,1.46-.71,13-.75,15,0C295.11,549,294.17,549.72,293,549.64Z" transform="translate(-121.81 -147.24)"/></g></svg>