<svg xmlns="http://www.w3.org/2000/svg" viewBox="0 0 797.85 979.91"><defs><style>.cls-1{fill:#fff;}</style></defs><g id="Layer_4" data-name="Layer 4"><path class="cls-1" d="M-831.36-225.74h10v12.59c2.65,1.26,4.85.05,7.24.72.88,3.41.3,7,.29,10.52-2.06,1.37-4.32,1-6.74,1.46v25c18.87,6,25.11,20.22,24.25,38.87-.16,3.49.11,7,0,10.49a12.4,12.4,0,0,0,2.34,7.9q31.9,47,63.62,94.18a10.84,10.84,0,0,0,5.19,4.33c8.44,3.4,16.76,7.09,25.38,10.78V4.83c-1.66,1.9-4.6.79-6.69,2.07-1.54,1.43-.53,3.15-.86,4.57,4.14,2.78,84.21,36.65,88.54,37.44V31.26h-5.68a30.31,30.31,0,0,1-.15-9.74L-619,21V8.82c2.71-1.41,5.35-.37,8.34-1V19.41c2.19,1.64,4.25.56,6.38.93,1.17,2.93.14,6.06.56,9-1.8,1.48-3.8.38-5.81,1.31V54.38l103.72,61V132c-2.95.4-4.56-2.29-7.42-2.42v17l44.45,23.86v15.11c-2.27,1.07-3.6-1.68-6-1v64.57l-14.54,2.33V177l-37.45-17.57V122.17L-613.08,71l-107.84,84.7V9.62L-835.67,27.45V298.08l-97.25-58.17V-19.27l-5.32-2.88V-37.47l30.62-6.35c15-24.3,29.72-48.6,45-72.49,4.81-7.48,7.54-14.88,6.58-23.72a58.3,58.3,0,0,1,.15-10c1-15.18,9.22-24,24.24-26.16.88-1.55.5-3.25.52-4.88,0-6.13,0-12.26,0-18.64h-7.14v-10.78l6.85-1.42Zm-32.1,313c0-13.81.16-26.42-.08-39-.1-5-3.65-8.32-7.62-12.17V82Zm-38-17.39c0-12.91-.13-24.82.06-36.72.09-6.08-3.36-9.83-7.71-14.43V65Zm68.06-230.95c-3.92,1.65-6.28,4.31-6.4,7.92-.3,9.28-.1,18.58-.1,28.52,2.43-.72,4.23,1.27,6.5.17Zm14,1.51v35.66c2.26,0,4.23.49,7-.77C-815.16-135.88-807.95-148.89-819.37-159.59Z" transform="translate(1103.72 225.74)"/><path class="cls-1" d="M-584.88,264.37l-54.89,7.29c-1.49-1.71-.82-3.61-.83-5.34-.1-15.8-.11-31.6-.16-47.4,0-14.75,10.19-29.55,23.43-33.85,16-5.19,31.19,4.91,32.14,22.6.94,17.25.27,34.59.31,51.88Z" transform="translate(1103.72 225.74)"/><path class="cls-1" d="M-963,468.9h18.17c1.1,1.82.59,3.68.6,5.43,0,20,0,39.93.06,59.89a45.89,45.89,0,0,0,.79,8.92c1.2,5.94,4.69,8.77,10.31,8.8s9-2.61,10.48-8.59a33.89,33.89,0,0,0,.89-8.4q0-30.19,0-60.39V469h18.62c1,1.42.56,3,.56,4.4,0,21-.08,41.92,0,62.88.14,22.87-13.64,30.6-32.58,30.25a41.36,41.36,0,0,1-8.85-1.21c-12.32-3-19.23-11.33-19.49-25.45-.45-23.28-.11-46.57-.09-69.86C-963.51,469.67-963.25,469.39-963,468.9Z" transform="translate(1103.72 225.74)"/><path class="cls-1" d="M-949.53,368.05H-967.3c-.3-1.55-.56-3-.86-4.41-1.28-6.25-4-9.27-9.12-9.55-4.57-.26-8.61.94-10.7,5.61-2.33,5.25-1.07,11.69,3,15,3,2.45,6.68,3.63,10.14,5.19,4.08,1.83,8.25,3.45,12.32,5.31A28.63,28.63,0,0,1-950.89,428c-9.61,14-42,15.75-53.07,2.83-5.57-6.53-6.18-14.4-5.51-22.91h18.62c.27,2.3.43,4.9.91,7.44,1.11,5.9,4,8.77,9.34,9.47,5.86.76,10.56-1.24,12.87-5.5,2.43-4.45,1.63-11.27-1.69-14.9-3.16-3.45-7.42-4.93-11.61-6.5-4.79-1.81-9.67-3.41-14.13-6-11.4-6.69-15.5-17.06-12.49-31.71,2.38-11.53,10.29-18.6,22.91-20a46.32,46.32,0,0,1,15.39.56C-954.88,343.87-948.3,352.68-949.53,368.05Z" transform="translate(1103.72 225.74)"/><path class="cls-1" d="M-604.5,373.8h-19c-.45-3.54-.71-7-1.36-10.36-1.17-6.08-4.56-9.16-9.93-9.41-5-.23-8.47,2.44-10.08,8.5-3.05,11.55-2.81,23.39-2.36,35.18.24,6.28.23,12.64,2.21,18.76s4.57,8.44,10.1,8.38,8.4-2.42,10.07-8.46a60.77,60.77,0,0,0,1.37-7.83c.33-2.44.49-4.9.74-7.57h18.9c.32,9.68-.69,18.89-5.82,27.26a19.09,19.09,0,0,1-2.44,3.15c-14.59,15.42-45.67,8.38-51.55-11.87-4.23-14.6-3.51-29.63-2.63-44.6a68.82,68.82,0,0,1,2.49-15.21C-660.4,347.91-652,341-639.71,340a56.89,56.89,0,0,1,12,.15c13.68,1.86,21.25,10,22.81,24.21C-604.62,367.33-604.65,370.33-604.5,373.8Z" transform="translate(1103.72 225.74)"/><path class="cls-1" d="M-871.15,365.34h17.39v6.48c1.92.62,2.09-1,2.77-1.7a22.63,22.63,0,0,1,24.33-5.33c8.27,3.36,10,10.41,10.06,18.32,0,18,0,35.93,0,54.22h-18.47V409.24c0-7,0-14,0-21-.07-7.48-2.22-10.38-7.64-10.48-6.12-.13-9.72,3.51-9.89,10.56-.21,8.66-.07,17.32-.07,26,0,7.62,0,15.23,0,23.08h-18.48Z" transform="translate(1103.72 225.74)"/><path class="cls-1" d="M-882.51,437.54H-900c-1.89-1.85-1.51-4.52-3.11-6.77-5.08,8.08-12.86,9.08-21.35,8.23a15,15,0,0,1-6.47-2.37c-10.38-6.42-11-31.38,1.39-37.14,6.4-3,13.17-4.4,19.81-6.4,3.83-1.15,6.63-3,7-7.33.48-5.53-2.46-9.32-7.61-9.75s-8.74,2.73-9.26,8.19c-.09,1-.12,2-.19,3.22h-16.31c-1.65-11.71,4.44-20.68,16-23.16a47.62,47.62,0,0,1,19.82.08c10.93,2.32,15.27,8.23,15.38,20.52s0,24.62,0,36.93C-884.85,426.94-885.08,432.11-882.51,437.54Zm-20.26-35.27c-4.16,1.43-8.11,2.56-11.88,4.13-6.28,2.6-8.5,12.49-4.19,17.83a6.37,6.37,0,0,0,5.22,2.41,11,11,0,0,0,10.81-10.32C-902.58,411.72-902.77,407.1-902.77,402.27Z" transform="translate(1103.72 225.74)"/><path class="cls-1" d="M-746.86,387.41H-763c-1.58-10.77,3.77-19.63,13.73-22.47a45.25,45.25,0,0,1,25.09.18c8.42,2.39,12.27,8.49,12.37,18.81.11,11.82,0,23.63,0,35.45,0,6-.38,11.94,2.15,18H-727c-1.94-1.35-1.28-4.12-2.92-6.54-5.24,7.88-12.89,9.08-21.32,8.15a14.19,14.19,0,0,1-10.64-6.53,23.29,23.29,0,0,1,11.72-35.54c4.41-1.45,8.94-2.48,13.38-3.85,6-1.85,8-4.94,7-10.65-.72-4-4.36-6.68-8.8-6.39-4.81.32-7.48,3.33-8,9.06C-746.71,385.72-746.77,386.38-746.86,387.41Zm17.1,14.83c-4.42,1.59-8.53,2.76-12.37,4.54-5.21,2.41-7.12,8.43-5,14.46,1.27,3.72,3.62,5.9,7.78,5.22,6.14-1,9.56-5,9.63-11.25C-729.73,411-729.76,406.72-729.76,402.24Z" transform="translate(1103.72 225.74)"/><path class="cls-1" d="M-395.88,437.41H-413c-2.26-1.53-1.56-4.34-3.24-6.67-5.32,8.34-13.27,9.16-21.88,8.16a14.16,14.16,0,0,1-6.36-2.61c-9.65-6.47-11.52-31.32,3.1-37.51,6.47-2.74,13.35-3.93,19.94-6.14,3.22-1.08,5.37-3.09,5.44-6.87s-.29-7-4.12-8.82a8.83,8.83,0,0,0-9.82,1.12c-2.88,2.3-2.87,5.79-3.24,9.31h-16.21c-1.05-13.35,6.11-22.18,18.86-23.57a70.39,70.39,0,0,1,14.44.06c11.79,1.15,17.91,7.8,18,19.69.1,11.15,0,22.3,0,33.45C-398,423.78-398.56,430.59-395.88,437.41ZM-416,401.61c-3.51,2.55-6.91,3.17-10.19,4.17a10.33,10.33,0,0,0-7.32,6.76c-2.26,6.62,1.15,14,6.52,14.11a10.86,10.86,0,0,0,11-10.54C-415.91,411.65-416,407.18-416,401.61Z" transform="translate(1103.72 225.74)"/><path class="cls-1" d="M-543.36,387.52H-559.2c-2.71-10.74,3.61-20.61,15.37-23.15a45.89,45.89,0,0,1,23.2.81c7.11,2.15,11.41,7.07,11.68,14.46.45,12.3.33,24.62.38,36.94,0,6.8-.08,13.6,2.05,20.66h-17.21c-1.6-1.46-1.53-4-2.8-6.75-4.91,8.09-12.45,9.33-20.77,8.6a15.86,15.86,0,0,1-7.42-2.65c-9.93-6.48-11.41-32.22,3.31-37.82,6.08-2.31,12.36-3.75,18.53-5.65,3.63-1.12,6.22-3,6.57-7.11.48-5.62-2.28-9.34-7.43-9.84s-8.7,2.66-9.32,8.11C-543.17,385.11-543.23,386.09-543.36,387.52Zm17.05,14.77c-3.84,1.33-6.93,2.45-10.05,3.49a11.76,11.76,0,0,0-6.76,17.16,6.4,6.4,0,0,0,7,3.58c5.5-.71,9.49-4.68,9.78-10.17C-526.12,411.78-526.31,407.18-526.31,402.29Z" transform="translate(1103.72 225.74)"/><path class="cls-1" d="M-487.81,587.88V574.61h3.19c8.49,0,12.52-5.11,10.25-13.3-4.65-16.76-9.43-33.5-14.13-50.25-1.65-5.89-3.25-11.79-5-18.21h19.32l10.32,47.4h.76c3-15.82,6-31.65,9.05-47.61h18.14c-.54,6.14-2.6,11.71-4.06,17.38-4.92,19.1-10,38.17-15,57.24-.55,2.07-1.36,4.07-2,6.12-3,9.46-9.09,14.81-19.44,14.5C-480.08,587.78-483.73,587.88-487.81,587.88Z" transform="translate(1103.72 225.74)"/><path class="cls-1" d="M-872.13,564.3h-17.53V492.77h16.72c1.44,1.81,0,4.16,1.23,6.53,5.21-6.61,11.84-9.42,20-8.71,8.84.76,14.85,5.09,15.62,13.82,1.76,19.85.42,39.76.75,59.89h-17.92c-1.06-2.34-.51-4.68-.54-6.94-.15-15-.13-29.93-.38-44.89-.07-4.21-2.06-7.39-6.85-7.65s-8.08,1.5-9.67,6.11a20.46,20.46,0,0,0-.9,6.88q.06,20.45,0,40.91C-871.57,560.5-871.15,562.35-872.13,564.3Z" transform="translate(1103.72 225.74)"/><path class="cls-1" d="M-694.37,540.17h15.79c.73,20.21-12.36,27.18-27.79,26.21-15.91-1-23.25-8.12-25.12-24.19a100.12,100.12,0,0,1,.72-30.8c2.51-12.88,10.54-19.86,23.71-20.72,8.92-.58,17.43.15,23.56,7.76,5.16,6.42,5.74,14.33,6.43,22.1.29,3.28.05,6.61.05,10.53h-36.32c-.67,6.26-.45,11.82,1.76,17.14,1.36,3.25,3.6,5.62,7.52,5.42,3.76-.19,6.16-2.28,7.36-5.73C-695.83,545.4-695.17,542.84-694.37,540.17Zm-.4-20.4c-.64-5.91.2-11.94-5.25-15.58a7.24,7.24,0,0,0-8.84.58c-4.62,3.88-4.94,9.25-4.59,15Z" transform="translate(1103.72 225.74)"/><path class="cls-1" d="M-624.26,540.89h15.8c1.17,1.64.4,3.55.82,5.26,1.29,5.29,5.67,8.23,11.28,7.44a8.14,8.14,0,0,0,7.36-9c-.26-3.62-2.44-5.72-5.58-6.94-4.78-1.86-9.63-3.54-14.41-5.38-11.56-4.44-15.77-10.94-14.9-22.87.69-9.49,7.11-16.06,18.2-18.24a42.58,42.58,0,0,1,16.38,0c12,2.37,17.19,9.54,16.26,22.47h-16.11c-1.5-8-3.07-10.15-7.87-10.36-4-.17-7.45,1.09-8.69,5.18s.14,7.69,4.37,9.38c4.92,2,10,3.58,15,5.4,13,4.75,17.74,13.49,14.51,26.93a19,19,0,0,1-12,13.67c-9.15,3.71-18.59,3.58-27.85.72C-621.26,561.57-625.49,553.28-624.26,540.89Z" transform="translate(1103.72 225.74)"/><path class="cls-1" d="M-1103.56,627.72c-.43-1.8-.06-2.76,1.49-2.84s3-.06,4.49-.06q391.91,0,783.79.08c1.94,0,5.35-1.64,6,2.82Z" transform="translate(1103.72 225.74)"/><path class="cls-1" d="M-736.91,492.7l-18,71.69h-21.64l-18.52-71.56h19.41l10.06,49.48.61-.08,9.44-49.53Z" transform="translate(1103.72 225.74)"/><path class="cls-1" d="M-524.72,504.9h-8.91V492.63l8.85-.45V472H-506v19.59c3.57,1.68,7,.19,10.47,1.25.74,3.84.46,7.72.17,11.94h-9.44c-1.64,2.07-.94,4.15-1,6.06-.08,9.66,0,19.31,0,29,0,11.05,0,11.05,10.48,12.41.06.75.17,1.56.18,2.36,0,3.14,0,6.29,0,9.72-6.94,1.15-13.66,1.58-20.36.32-5.39-1-7.92-4.55-8.56-11.29-1.29-13.62-.41-27.27-.65-40.91C-524.76,510.1-524.72,507.79-524.72,504.9Z" transform="translate(1103.72 225.74)"/><path class="cls-1" d="M-808.56,365.25h8.76V344.8h18.72v19.64c3.44,1.37,6.84.09,10.35,1v12c-2.95,1.12-6.33-.09-10.2.83v15.56c0,6.81,0,13.63,0,20.44,0,9.59.42,10,10.17,10.7a47.91,47.91,0,0,1,.1,12.39c-6.57.87-13,1.28-19.41.23-4.91-.8-7.77-3.87-8.78-8.88-1.19-5.94-.82-11.91-.85-17.88-.06-10.78,0-21.57,0-32.78h-8.7A55.51,55.51,0,0,1-808.56,365.25Z" transform="translate(1103.72 225.74)"/><path class="cls-1" d="M-573.84,437.41h-17.84V342.18h17.84Z" transform="translate(1103.72 225.74)"/><path class="cls-1" d="M-476,437.47h-18.37v-72H-477v9.28c5.09-8,10.76-12.59,19.79-10.93V381a66.31,66.31,0,0,0-8.51.57c-6.85,1.31-10.24,5.58-10.25,12.57C-476,408.39-476,422.67-476,437.47Z" transform="translate(1103.72 225.74)"/><path class="cls-1" d="M-666.58,492.67h17.7v8.78c5.18-7.66,10.79-12.31,19.81-10.54v17.44c-2.6.5-5.19-.42-7.8.07-7.44,1.42-11.09,5.34-11.13,12.91-.08,14.12,0,28.24,0,42.79h-18.55Z" transform="translate(1103.72 225.74)"/><path class="cls-1" d="M-332.58,740.53c1.84,4.46,4.87,6.76,9.76,5.51,5.4-1.39,6.79-4.75,6.53-15.36-.72-.49-1.14,0-1.62.45-9,8.09-19.75,5.43-23.46-6.12a53,53,0,0,1-.35-30.49c3.42-12.49,15.6-15.47,25.5-6.23.22-1.29.4-2.31.61-3.53,3-.89,6.12-.44,9.08-.33.32.46.66.73.66,1,0,17.14,0,34.29-.18,51.43-.08,6.55-2.54,12.21-9,14.81-7.79,3.12-15.66,3.19-22.83-1.73-3-2-4.4-5.31-4-9.4Zm-.47-31.36A38.75,38.75,0,0,0-331.89,721c1,3.4,2.87,6.16,6.85,6.12,3.78,0,6.18-2.34,7.21-5.82a43.1,43.1,0,0,0,.15-24c-.94-3.42-2.94-5.92-7-5.82-4.24.09-6.18,2.8-7.25,6.35A36.17,36.17,0,0,0-333,709.17Z" transform="translate(1103.72 225.74)"/><path class="cls-1" d="M-615.61,688.5c.34-1.67.55-2.75.8-4h8.52c1.32,1.19.77,2.79.78,4.21,0,15,.08,29.94,0,44.91-.07,16.5-13.47,25-28.78,18.29-4.92-2.14-7.31-5.81-7.41-11.41h9.09c3.38,5.43,6.2,6.87,10.68,5.4,5.32-1.75,6.73-5.55,5.67-16.18a14.12,14.12,0,0,1-9.16,5.78c-7,1.14-13.08-2.35-15.38-9.7a52.47,52.47,0,0,1-.18-31.85C-637.12,681.7-625.29,679.1-615.61,688.5Zm-.25,20.11A31.13,31.13,0,0,0-617,697.79c-1-3.5-2.93-6.35-7.24-6.33s-6.37,2.73-7.25,6.32a49.84,49.84,0,0,0,0,23.2c.74,3.25,2.65,5.87,6.32,6.14s6.16-1.89,7.54-5.29C-616,717.75-615.81,713.45-615.86,708.61Z" transform="translate(1103.72 225.74)"/><path class="cls-1" d="M-1059.56,685.54h-10.56c-.84-7.42-2.81-10.27-7.39-10.87-5.18-.68-9.31,1.32-10.76,5.19a10.89,10.89,0,0,0,4.08,13.17c4.35,2.83,9.42,4,14.18,5.89,5.81,2.3,10.67,5.69,11.94,12.25,2.34,12.09-1.67,23.8-16.74,25.79-13,1.71-22-2.53-25.1-12.45a23.91,23.91,0,0,1-.74-9.6h10c.88,1,.86,2.33,1,3.64.78,6.82,3.8,9.93,9.88,10.25,5.78.3,10.1-2.7,11.18-7.77a11.65,11.65,0,0,0-7.27-13.26c-4.44-1.8-9.14-3-13.46-5.08-9-4.28-12.31-12-10.11-22.49,1.65-7.88,8.28-13.2,17.3-13.83,1.66-.12,3.33-.1,5-.07C-1064.71,666.5-1059,672.52-1059.56,685.54Z" transform="translate(1103.72 225.74)"/><path class="cls-1" d="M-733.69,735.63v-67.8h36.63v8.81h-25.42v18.81h23.76v9.12H-722.4v22H-696v9.08Z" transform="translate(1103.72 225.74)"/><path class="cls-1" d="M-542.25,564.32h-18.12V492.78h18.12Z" transform="translate(1103.72 225.74)"/><path class="cls-1" d="M-997.19,735.86h-10.07v-68h10.09v21.77c5-5.06,10-7.84,16.49-6.31,5.86,1.37,9,4.15,9.09,10.12.28,13.93.09,27.87.09,42.09-3.17.89-6.4.42-10.19.31,0-10.8,0-21.39,0-32a34.49,34.49,0,0,0-.09-5.48c-.54-3.37-1.41-6.55-5.81-6.86s-7.51,1.62-8.7,5.78a32.47,32.47,0,0,0-.86,8.38C-997.24,715.59-997.19,725.52-997.19,735.86Z" transform="translate(1103.72 225.74)"/><path class="cls-1" d="M-821.54,492.56h17.82v71.6h-17.82Z" transform="translate(1103.72 225.74)"/><path class="cls-1" d="M-678.92,684.62c.14,1.56.27,3,.45,5,4.83-5.33,10.15-7.67,16.81-6.43,5,.93,7.94,3.73,8.94,8.71,1.29,6.45.55,13,.66,19.42.13,8,0,15.94,0,24.27h-10.79V716c0-5.33,0-10.66,0-16,0-6.14-1.88-8.52-6.53-8.58s-8.3,3.25-8.39,8.56c-.18,9.66-.06,19.32-.06,29v6.69h-10.44V684.62Z" transform="translate(1103.72 225.74)"/><path class="cls-1" d="M-769,234.47l-20.37,2.86c-1.9-2.63-1.21-5.44-2.45-8.48l38.81-6v63.89L-769,289Z" transform="translate(1103.72 225.74)"/><path class="cls-1" d="M-493.13,711.78h-26.7a37.41,37.41,0,0,0,.85,11.49c1.07,4,3.34,6.69,7.5,6.74s6.59-2.62,7.57-6.59c.36-1.45.7-2.9,1.1-4.57h9.26c.62,16.75-14.92,21.28-26.21,17-4.78-1.79-7.43-5.67-8.67-10.26-2.85-10.61-3-21.34.64-31.81,2.75-7.87,9.84-11.78,18.62-10.93,9.2.88,13.7,5.05,15.44,14A59.43,59.43,0,0,1-493.13,711.78ZM-519.69,704h15.84c.91-8.47-1.66-13.37-7-13.72C-516.58,689.87-519.93,694.88-519.69,704Z" transform="translate(1103.72 225.74)"/><path class="cls-1" d="M-458.57,718.76h9.43c.36,6.74-1.94,12.1-7.45,15.74-10.58,7-24.68,1.94-27.89-10.21a51.77,51.77,0,0,1,.53-29c2.78-8.91,9.8-13.31,19.12-12.37,9.66,1,14.75,5.8,15.75,15.52.42,4.11.07,8.29.07,13h-26c-1.32,4.45-.46,8.39.46,12.18s3.27,6.56,7.73,6.4c4.14-.16,6.23-2.68,7.19-6.4C-459.2,722-458.92,720.42-458.57,718.76Zm-.65-14.79c.2-5,.42-9.71-4.16-12.75a6.52,6.52,0,0,0-7.52.11c-4.42,3-4.49,7.65-4.57,12.64Z" transform="translate(1103.72 225.74)"/><path class="cls-1" d="M-379.14,684.46c.15,1.68.26,2.95.4,4.48a5.42,5.42,0,0,0,1.38-.76A15.55,15.55,0,0,1-363.45,683c6.75.72,10.39,4.13,10.54,11,.31,13.77.09,27.56.09,41.69h-9.67c-1.17-1.4-.51-3.3-.52-5-.07-9.81,0-19.63-.05-29.45,0-6.85-1.93-9.58-6.6-9.69-5.25-.12-8.48,3.49-8.55,10-.11,9.65,0,19.3,0,29v5.14a28.89,28.89,0,0,1-10.32.11V684.76C-385.46,683.91-382.52,684.29-379.14,684.46Z" transform="translate(1103.72 225.74)"/><path class="cls-1" d="M-791.92,709.21A48.47,48.47,0,0,1-793.68,724c-2.73,9-8.41,13.35-17.46,13.41s-14.9-4.35-17.55-13.28c-2.56-8.64-2.43-17.45-.67-26.17,2.06-10.26,8.64-15.39,18.6-15.1s16.18,5.67,17.91,16C-792.25,702.4-791.58,706-791.92,709.21Zm-10.56,1.16c-.17-4.46.18-9-1.29-13.29-1.26-3.71-3.42-6.47-7.82-6.29-4.17.17-6.27,2.93-7,6.52a60.85,60.85,0,0,0-.05,26.08c.83,3.81,3.27,6,7.35,6.1s6.39-2.14,7.61-5.82C-802.3,719.33-802.69,714.82-802.48,710.37Z" transform="translate(1103.72 225.74)"/><path class="cls-1" d="M-963.62,708.66c.29-2.58.47-6.58,1.25-10.47,2-10.12,8.06-15.18,17.82-15.33,10-.15,16,4.38,18.38,14.57a52.43,52.43,0,0,1-.56,27c-2.51,8.6-8.95,13.13-17.78,12.94s-14.58-4.64-17.13-13.14C-963,719.63-963.43,714.86-963.62,708.66Zm10.82,1.53c.08,4.79-.34,9.67,1.39,14.26a7.23,7.23,0,0,0,7.7,5c3.62-.18,6.14-2.13,6.9-5.42a59.24,59.24,0,0,0-.09-27.55,7.07,7.07,0,0,0-7.2-5.75c-3.89,0-6,2.31-7.29,5.65C-953,700.88-952.7,705.56-952.8,710.19Z" transform="translate(1103.72 225.74)"/><path class="cls-1" d="M-919,709.78c.07-5.49.31-11,2.33-16.18,2.89-7.48,8.74-10.46,16.34-10.73,8.07-.28,14.21,3,16.85,9.87a46.77,46.77,0,0,1-.25,35c-2.88,7.18-9.22,9.76-16.57,9.6-7.17-.15-12.83-3.11-15.86-10C-918.63,721.73-919,715.79-919,709.78Zm10.39.1c0,4.88,0,9.21,1.18,13.39,1,3.61,3.16,6.17,7.32,6.22s6.91-2.1,7.81-6.16a57.71,57.71,0,0,0-.11-26.08c-.94-3.9-3.26-6.53-7.62-6.45s-6.42,3.1-7.42,6.81A42.2,42.2,0,0,0-908.61,709.88Z" transform="translate(1103.72 225.74)"/><path class="cls-1" d="M-574.76,684.45h8.81c1.5,1.31.31,3.08,1.31,4.43a4.07,4.07,0,0,0,1.1-.71c2.69-3.34,6.4-4.71,10.43-5.24,7.91-1,13.87,3.33,14.11,11,.39,12.32.16,24.64.2,37v4.73h-10.48c0-11,0-21.75,0-32.52a36.86,36.86,0,0,0-.22-5.47c-.43-2.91-1.34-5.52-4.87-6.06s-6.55.36-8.56,3.63c-1.47,2.39-1.6,5-1.59,7.69,0,10.8,0,21.59,0,32.63-3.56.7-6.78.43-10.24.27Z" transform="translate(1103.72 225.74)"/><path class="cls-1" d="M-1014.65,701.48h-9.88c-.33-1.52-.63-3-1-4.41-.78-3.58-2.59-6.13-6.58-6.28s-6.09,2.17-7.36,5.57c-1.65,4.46-1.56,9.2-1.57,13.8,0,4.09,0,8.29,1.21,12.35s3.1,7.11,7.8,7c5.09-.17,6.45-4,7.27-8.05a36.68,36.68,0,0,0,.34-4.14c3.11-.94,6.2-.2,9.24-.45,1.23,10.08-3.68,18.17-11.8,19.89-11.51,2.44-19.73-1.83-22.71-12.16a51.32,51.32,0,0,1,0-29c2.82-9.64,10.51-14.1,20.83-12.46C-1019.41,684.57-1014.58,690.71-1014.65,701.48Z" transform="translate(1103.72 225.74)"/><path class="cls-1" d="M-770.49,735.8h-10.18V693.14c-2.32-2-4.93-.43-7.07-1.61a13.25,13.25,0,0,1,.12-7l6.26-.6c2.51-16.53,4.78-18.56,18.68-16.9,1.06,1.1.66,2.49.72,3.79.05,1.14,0,2.3,0,3.36-2.26,1.5-4.92.28-7.43,2.37-1.55,1.58-1.43,4.2-1,7,2.4,1.6,5.23.07,7.93,1.16,1.18,2,.18,4.31.58,6.44-2.72,1.7-5.56.21-8.58,1.49Z" transform="translate(1103.72 225.74)"/><path class="cls-1" d="M-861.94,735.8h-10.21v-68h10.21Z" transform="translate(1103.72 225.74)"/><path class="cls-1" d="M-521.92,256.12c0-11.83-.18-23.1.08-34.36.11-4.65-.52-8.52-5.25-10.74,1.56-5,4.48-8,9.46-8.51,4.37-.49,8.34,2.35,8.4,6.56.2,14.9.07,29.81.07,44.66C-513.28,255.43-517.39,254.78-521.92,256.12Z" transform="translate(1103.72 225.74)"/><path class="cls-1" d="M-746.65,89.67l-12.46,1.49c0-11.74-.12-23.15.06-34.56.07-4.5-.62-8.29-5.19-10.13,2-6.2,5.61-9.1,10.67-8.62,4.14.39,6.88,2.52,6.9,7C-746.61,59.61-746.65,74.4-746.65,89.67Z" transform="translate(1103.72 225.74)"/><path class="cls-1" d="M-789.47,95.65l-12.36,1.53V78.76c0-5.49-.15-11,.05-16.45.17-4.36-.86-7.88-5.07-9.73,1.43-6.27,5.85-9.56,11.36-8.64,3.35.55,5.87,2.54,5.92,5.8C-789.35,65-789.47,80.21-789.47,95.65Z" transform="translate(1103.72 225.74)"/><path class="cls-1" d="M-429.89,735.79h-9.95V684.58h9.39c1.17,1.79.16,3.87.91,6.39,3.35-5.14,7.17-9.11,13.92-7.8,1.24,3.36.35,6.77.63,10.47h-2.75c-8.27-.18-11.95,3.18-12.11,11.49-.16,8.49,0,17,0,25.47Z" transform="translate(1103.72 225.74)"/><path class="cls-1" d="M-409.41,684.63a41.58,41.58,0,0,1,10.16-.19v51.23h-10.16Z" transform="translate(1103.72 225.74)"/><path class="cls-1" d="M-595.48,684.45h9.64v51.12c-3,.89-6.16.15-9.64.48Z" transform="translate(1103.72 225.74)"/><path class="cls-1" d="M-603.76,128.81l-11.7,1.5c-3.33-8.93,3.87-19.77-5.87-27.18,1.69-5.92,5.83-9,11.32-8.16,3.68.6,6.12,2.79,6.19,6.59C-603.65,110.49-603.76,119.43-603.76,128.81Z" transform="translate(1103.72 225.74)"/><path class="cls-1" d="M-560.29,467.83h18v15.46h-18Z" transform="translate(1103.72 225.74)"/><path class="cls-1" d="M-821.69,483.22V468.05h18.06v15.17Z" transform="translate(1103.72 225.74)"/><path class="cls-1" d="M-399.34,676.88h-9.86c-1.14-3.29-.44-6.5-.57-10h10.43Z" transform="translate(1103.72 225.74)"/><path class="cls-1" d="M-595.65,676.78v-9.9h9.82v9.9Z" transform="translate(1103.72 225.74)"/></g></svg>