<svg xmlns="http://www.w3.org/2000/svg" xmlns:xlink="http://www.w3.org/1999/xlink" version="1.1" id="Layer_1" x="0px" y="0px" viewBox="0 0 540 180" enable-background="new 0 0 540 180" xml:space="preserve"><g><g><path fill="#D83C35" d="M175.407 67.085h6.483v46.321h-6.483V67.085z"/><path fill="#D83C35" d="M192.985 79.651c1.426-0.356 3.319-0.735 5.682-1.136c2.361-0.401 5.08-0.602 8.155-0.602 c2.762 0 5.1 0.4 6.9 1.169c1.827 0.8 3.3 1.9 4.4 3.275c1.091 1.4 1.9 3.1 2.3 5 c0.445 2 0.7 4.1 0.7 6.484v19.518h-6.216V95.226c0-2.139-0.146-3.966-0.435-5.481 c-0.291-1.515-0.769-2.741-1.437-3.676c-0.668-0.936-1.561-1.615-2.674-2.039c-1.114-0.423-2.496-0.635-4.144-0.635 c-0.668 0-1.36 0.023-2.072 0.067c-0.713 0.045-1.393 0.1-2.039 0.167c-0.646 0.067-1.226 0.145-1.738 0.2 c-0.513 0.09-0.88 0.157-1.103 0.201v29.343h-6.216V79.651z"/><path fill="#D83C35" d="M246.458 114.208c-2.808 0-5.27-0.445-7.386-1.337c-2.117-0.891-3.9-2.139-5.347-3.743 c-1.449-1.604-2.53-3.509-3.242-5.715c-0.713-2.205-1.07-4.646-1.07-7.318c0-2.674 0.39-5.124 1.17-7.353 c0.779-2.228 1.882-4.154 3.309-5.782c1.426-1.626 3.175-2.896 5.247-3.81c2.072-0.913 4.378-1.37 6.918-1.37 c1.56 0 3.1 0.1 4.7 0.401c1.559 0.3 3.1 0.7 4.5 1.27l-1.403 5.281c-0.936-0.445-2.017-0.802-3.242-1.07 c-1.227-0.267-2.53-0.401-3.911-0.401c-3.476 0-6.139 1.092-7.987 3.275c-1.85 2.184-2.774 5.37-2.774 9.6 c0 1.9 0.2 3.6 0.6 5.146c0.423 1.6 1.1 2.9 2 4.011c0.913 1.1 2.1 2 3.5 2.6 c1.426 0.6 3.2 0.9 5.2 0.902c1.648 0 3.142-0.156 4.479-0.468s2.383-0.646 3.142-1.003l0.869 5.2 c-0.357 0.224-0.869 0.435-1.538 0.635s-1.427 0.378-2.272 0.535c-0.847 0.155-1.75 0.289-2.707 0.4 C248.273 114.2 247.3 114.2 246.5 114.208z"/><path fill="#D83C35" d="M265.507 72.366c-1.114 0-2.062-0.368-2.841-1.103c-0.78-0.735-1.169-1.727-1.169-2.975 c0-1.247 0.39-2.239 1.169-2.974c0.779-0.735 1.727-1.103 2.841-1.103c1.113 0 2.1 0.4 2.8 1.1 c0.779 0.7 1.2 1.7 1.2 2.974c0 1.248-0.391 2.239-1.17 2.975C267.568 72 266.6 72.4 265.5 72.366z M268.649 113.406h-6.216V78.649h6.216V113.406z"/><path fill="#D83C35" d="M301.802 62.607l6.217-1.07v50.866c-1.427 0.401-3.254 0.803-5.481 1.2 c-2.229 0.401-4.79 0.602-7.687 0.602c-2.674 0-5.08-0.424-7.219-1.27s-3.967-2.049-5.481-3.609 c-1.515-1.56-2.685-3.465-3.509-5.715c-0.825-2.25-1.236-4.779-1.236-7.587c0-2.674 0.345-5.124 1.036-7.353 c0.69-2.228 1.704-4.144 3.041-5.748c1.337-1.604 2.975-2.852 4.913-3.743c1.938-0.891 4.154-1.337 6.65-1.337 c2.005 0 3.8 0.3 5.3 0.802c1.538 0.5 2.7 1 3.4 1.537V62.607z M301.802 86 c-0.758-0.624-1.85-1.225-3.274-1.805c-1.427-0.579-2.986-0.869-4.68-0.869c-1.782 0-3.309 0.324-4.578 1 c-1.271 0.646-2.307 1.537-3.108 2.674c-0.802 1.136-1.382 2.484-1.737 4.043c-0.357 1.562-0.535 3.232-0.535 5 c0 4.1 1 7.2 3 9.392c2.005 2.2 4.7 3.3 8 3.309c1.693 0 3.108-0.077 4.245-0.234 c1.136-0.155 2.016-0.322 2.64-0.501V86.001z"/><path fill="#D83C35" d="M316.774 96.095c0-3.075 0.444-5.759 1.337-8.055c0.891-2.294 2.071-4.2 3.542-5.715 c1.471-1.515 3.164-2.651 5.08-3.409c1.916-0.757 3.877-1.136 5.882-1.136c4.68 0 8.3 1.5 10.8 4.4 c2.495 2.9 3.7 7.4 3.7 13.335c0 0.3 0 0.6 0 1.035c0 0.425-0.023 0.814-0.066 1.17h-23.796 c0.268 3.6 1.3 6.4 3.1 8.222c1.826 1.9 4.7 2.8 8.6 2.808c2.183 0 4.021-0.189 5.515-0.568 c1.492-0.378 2.617-0.746 3.375-1.103l0.869 5.213c-0.758 0.401-2.084 0.825-3.978 1.271c-1.895 0.444-4.043 0.668-6.45 0.7 c-3.03 0-5.647-0.457-7.854-1.37c-2.206-0.912-4.021-2.172-5.447-3.776c-1.427-1.604-2.484-3.509-3.175-5.715 C317.119 101.1 316.8 98.7 316.8 96.095z M340.637 92.686c0.044-2.808-0.658-5.113-2.105-6.918 c-1.449-1.805-3.442-2.708-5.982-2.708c-1.427 0-2.686 0.279-3.776 0.836c-1.093 0.558-2.017 1.281-2.774 2.2 c-0.758 0.892-1.348 1.916-1.771 3.075c-0.424 1.159-0.701 2.339-0.835 3.542H340.637z"/><path fill="#D83C35" d="M356.076 79.651c1.425-0.356 3.318-0.735 5.682-1.136c2.361-0.401 5.079-0.602 8.154-0.602 c2.763 0 5.1 0.4 6.9 1.169c1.826 0.8 3.3 1.9 4.4 3.275c1.092 1.4 1.9 3.1 2.3 5 c0.445 2 0.7 4.1 0.7 6.484v19.518h-6.217V95.226c0-2.139-0.145-3.966-0.435-5.481c-0.29-1.515-0.769-2.741-1.437-3.676 c-0.669-0.936-1.561-1.615-2.674-2.039c-1.114-0.423-2.496-0.635-4.145-0.635c-0.668 0-1.359 0.023-2.071 0.1 c-0.714 0.045-1.394 0.1-2.039 0.167c-0.646 0.067-1.227 0.145-1.738 0.234c-0.513 0.09-0.88 0.157-1.103 0.201v29.343h-6.216 V79.651z"/><path fill="#D83C35" d="M400.257 78.649h13.168v5.213h-13.168v16.042c0 1.7 0.1 3.2 0.4 4.3 c0.268 1.1 0.7 2 1.2 2.674c0.535 0.6 1.2 1.1 2 1.37c0.803 0.3 1.7 0.4 2.8 0.4 c1.872 0 3.376-0.211 4.512-0.635c1.137-0.423 1.927-0.724 2.373-0.902l1.203 5.146c-0.624 0.312-1.716 0.702-3.275 1.2 c-1.561 0.468-3.342 0.702-5.347 0.702c-2.362 0-4.312-0.301-5.849-0.902c-1.538-0.602-2.774-1.504-3.71-2.707 s-1.594-2.685-1.972-4.445c-0.379-1.76-0.568-3.798-0.568-6.116V68.957l6.216-1.069V78.649z"/></g><g><path fill="#D83C35" d="M460.012 113.406c-0.759-2.005-1.471-3.978-2.14-5.915c-0.668-1.938-1.359-3.911-2.071-5.916h-20.988 l-4.211 11.831h-6.751c1.781-4.901 3.452-9.436 5.013-13.603c1.56-4.166 3.085-8.121 4.579-11.864 c1.492-3.743 2.974-7.319 4.444-10.728c1.471-3.409 3.008-6.784 4.612-10.126h5.949c1.604 3.3 3.1 6.7 4.6 10.1 c1.471 3.4 3 7 4.4 10.728c1.492 3.7 3 7.7 4.6 11.864c1.56 4.2 3.2 8.7 5 13.603H460.012z M453.929 96.228c-1.427-3.876-2.841-7.63-4.244-11.262c-1.404-3.631-2.864-7.119-4.378-10.461 c-1.561 3.342-3.042 6.83-4.445 10.461c-1.403 3.632-2.797 7.386-4.178 11.262H453.929z"/><path fill="#D83C35" d="M476.053 72.366c-1.114 0-2.062-0.368-2.841-1.103c-0.78-0.735-1.17-1.727-1.17-2.975 c0-1.247 0.39-2.239 1.17-2.974c0.779-0.735 1.727-1.103 2.841-1.103c1.113 0 2.1 0.4 2.8 1.1 c0.779 0.7 1.2 1.7 1.2 2.974c0 1.248-0.391 2.239-1.17 2.975C478.113 72 477.2 72.4 476.1 72.366z M479.194 113.406h-6.216V78.649h6.216V113.406z"/><path fill="#D83C35" d="M512.347 62.607l6.217-1.07v50.866c-1.427 0.401-3.254 0.803-5.481 1.2 c-2.229 0.401-4.79 0.602-7.687 0.602c-2.674 0-5.08-0.424-7.219-1.27s-3.967-2.049-5.481-3.609 c-1.515-1.56-2.685-3.465-3.509-5.715c-0.825-2.25-1.236-4.779-1.236-7.587c0-2.674 0.345-5.124 1.036-7.353 c0.69-2.228 1.704-4.144 3.041-5.748c1.337-1.604 2.975-2.852 4.913-3.743c1.938-0.891 4.154-1.337 6.65-1.337 c2.005 0 3.8 0.3 5.3 0.802c1.538 0.5 2.7 1 3.4 1.537V62.607z M512.347 86 c-0.758-0.624-1.85-1.225-3.274-1.805c-1.427-0.579-2.986-0.869-4.68-0.869c-1.782 0-3.309 0.324-4.578 1 c-1.271 0.646-2.307 1.537-3.108 2.674c-0.802 1.136-1.382 2.484-1.737 4.043c-0.357 1.562-0.535 3.232-0.535 5 c0 4.1 1 7.2 3 9.392c2.005 2.2 4.7 3.3 8 3.309c1.693 0 3.108-0.077 4.245-0.234 c1.136-0.155 2.016-0.322 2.64-0.501V86.001z"/></g><g><g><g><linearGradient id="SVGID_1_" gradientUnits="userSpaceOnUse" x1="82.4" y1="45.4" x2="82.4" y2="140.5"><stop offset="0" style="stop-color:#D83C35"/><stop offset="0.9987" style="stop-color:#FFC815"/></linearGradient><path fill="url(#SVGID_1_)" d="M36.409 60.078C50.38 50.7 65.1 46 81.1 46c0.018 0 0 0 0.1 0 c15.784 0 32.8 5.6 47.2 15.12c0 0 0 6.33-1.775 11.884C113.098 63 96.1 57 81.1 57c-0.016 0-0.03 0-0.046 0 c-15.482 0-29.724 5.003-43.319 15.396C37.762 72.4 36.2 66.6 36.4 60.078z"/></g></g><g><g><linearGradient id="SVGID_2_" gradientUnits="userSpaceOnUse" x1="82" y1="46" x2="82" y2="139"><stop offset="0" style="stop-color:#D83C35"/><stop offset="0.9987" style="stop-color:#FFC815"/></linearGradient><path fill="url(#SVGID_2_)" d="M118.596 94.853c-13.335-9.504-23.985-13.38-36.76-13.38c-13.222 0-24.255 3.59-36.469 11.9 c0 0-3.074-4.322-4.451-9.883c13.38-8.789 26.17-12.745 40.919-12.745c14.459 0 26.9 4.3 41.3 14.2 C121.323 90.5 118.6 94.9 118.6 94.853z"/></g></g><g><g><linearGradient id="SVGID_3_" gradientUnits="userSpaceOnUse" x1="82" y1="45.6" x2="82" y2="138.8"><stop offset="0" style="stop-color:#D83C35"/><stop offset="0.9987" style="stop-color:#FFC815"/></linearGradient><path fill="url(#SVGID_3_)" d="M52.614 104.343C61.536 98 70.8 95 81.5 95c0.001 0 0 0 0 0 c10.273 0 21.4 3.7 30 10.052c0 0-2.841 3.369-7.251 7.631C97.563 108.1 89.2 105 81.5 105 c-0.001 0-0.002 0-0.003 0c-8.185 0-15.034 2.345-21.891 6.977C55.119 108.1 52.6 104.3 52.6 104.343z"/></g></g><linearGradient id="SVGID_4_" gradientUnits="userSpaceOnUse" x1="82" y1="46" x2="82" y2="139"><stop offset="0" style="stop-color:#D83C35"/><stop offset="0.9987" style="stop-color:#FFC815"/></linearGradient><circle fill="url(#SVGID_4_)" cx="82" cy="124.9" r="7.6"/><g><linearGradient id="SVGID_5_" gradientUnits="userSpaceOnUse" x1="81.8" y1="46" x2="81.8" y2="139"><stop offset="0" style="stop-color:#D83C35"/><stop offset="0.9987" style="stop-color:#FFC815"/></linearGradient><path fill="url(#SVGID_5_)" d="M82.321 156.167l-1.762-0.796c-0.685-0.31-16.958-7.767-33.366-23.63 c-21.874-21.147-33.382-47.219-33.28-75.399l0.005-1.412l0.845-1.133C29.144 34.6 54.2 23.1 81.8 23.1 c27.358 0 51.8 11.2 67 30.643l0.877 1.122l0.028 1.424c0.571 28.2-10.605 54.293-32.321 75.5 c-16.284 15.871-32.57 23.332-33.256 23.642L82.321 156.167z M22.47 57.8c0.279 25.5 10.5 48.2 30.5 67.6 c12.335 12 24.9 19 29.4 21.312c4.522-2.326 17.024-9.327 29.25-21.301c19.757-19.347 29.697-42.062 29.558-67.529 c-13.642-16.699-35.188-26.247-59.364-26.247C57.42 31.6 35.4 41.4 22.5 57.8z"/></g></g></g></svg>